<svg xmlns="http://www.w3.org/2000/svg" fill="none" viewBox="0 0 24 24">
  <rect width="24" height="24" fill="url(#paint0_linear_9873_18115)" rx="12"/>
  <g fill="#F70277" clip-path="url(#clip0_9873_18115)">
    <path d="M10.058 7.7c-.15-.023-.156-.026-.085-.037.135-.02.455.008.675.06.515.123.984.436 1.483.993l.133.147.19-.03c.8-.129 1.615-.027 2.296.288.187.087.483.259.52.303a.801.801 0 0 1 .048.202c.05.335.025.593-.078.784-.056.105-.059.138-.021.227a.22.22 0 0 0 .196.124c.17 0 .351-.273.436-.654l.033-.151.067.075c.364.413.65.976.7 1.376l.012.105-.061-.095a1.172 1.172 0 0 0-.347-.365c-.244-.161-.503-.216-1.187-.252-.618-.033-.968-.086-1.315-.199-.59-.192-.888-.449-1.59-1.369-.31-.408-.503-.634-.695-.816-.435-.414-.862-.631-1.41-.716Z"/>
    <path d="M15.409 8.612c.015-.273.053-.454.127-.619a.677.677 0 0 1 .062-.119.403.403 0 0 1-.029.107c-.054.16-.063.38-.026.634.048.323.075.37.417.72.16.163.346.37.414.458l.123.161-.123-.115a5.238 5.238 0 0 0-.572-.455c-.051-.026-.06-.026-.09.006-.03.029-.036.072-.04.278-.006.32-.05.526-.155.732-.057.11-.066.087-.015-.039.039-.093.043-.135.042-.445 0-.623-.074-.773-.508-1.03a4.763 4.763 0 0 0-.403-.208c-.111-.05-.2-.093-.197-.096.013-.012.436.111.606.177.254.097.296.11.326.098.021-.008.031-.068.041-.245ZM10.35 9.679c-.305-.42-.493-1.064-.453-1.545l.013-.149.07.013c.13.023.355.107.46.171.289.175.414.406.541 1 .037.173.086.37.109.436.036.108.173.358.284.52.08.117.027.173-.15.157-.27-.025-.637-.278-.874-.603ZM15.039 12.804c-1.425-.574-1.927-1.072-1.927-1.913 0-.123.004-.225.01-.225.004 0 .06.041.122.091.289.232.612.331 1.508.462.528.077.824.139 1.098.23.87.288 1.408.874 1.537 1.671.037.232.015.666-.046.896-.047.18-.193.506-.232.519-.01.003-.02-.038-.024-.094a1.155 1.155 0 0 0-.42-.809c-.288-.248-.677-.446-1.626-.828ZM14.038 13.042a2.537 2.537 0 0 0-.068-.301l-.037-.109.068.076c.093.105.167.24.23.418.047.137.053.177.053.4 0 .217-.007.263-.05.385-.07.194-.157.332-.302.479-.26.265-.595.412-1.078.473-.084.01-.329.028-.544.04-.542.027-.899.085-1.22.198a.259.259 0 0 1-.091.022c-.013-.013.205-.143.386-.23.254-.122.507-.19 1.074-.284.28-.046.57-.103.643-.126.694-.212 1.05-.761.936-1.44Z"/>
    <path d="M14.692 14.203c-.19-.407-.233-.8-.13-1.167.012-.04.03-.071.04-.071.011 0 .056.024.1.053.087.06.262.158.728.412.582.318.914.563 1.14.844.197.246.32.526.378.867.033.193.014.659-.036.853-.156.614-.52 1.096-1.038 1.378a1.35 1.35 0 0 1-.152.075c-.007 0 .02-.07.062-.156.174-.365.194-.72.062-1.115-.08-.241-.245-.536-.578-1.035-.386-.58-.481-.734-.576-.938ZM9.338 16.4c.529-.447 1.187-.765 1.787-.862.258-.042.688-.025.928.036.383.098.726.318.904.58.175.256.25.479.328.975.03.196.064.392.074.437.058.257.172.463.313.566.224.164.61.174.99.026a.498.498 0 0 1 .124-.039c.013.014-.178.142-.313.21a1.06 1.06 0 0 1-.517.125c-.347 0-.636-.177-.877-.537a4.282 4.282 0 0 1-.236-.472c-.254-.58-.38-.757-.675-.95-.257-.168-.588-.198-.837-.076a.542.542 0 0 0-.185.844.725.725 0 0 0 .41.213.437.437 0 0 0 .494-.437c0-.174-.067-.274-.236-.35-.23-.104-.478.018-.477.234 0 .092.041.15.134.192.059.027.06.03.012.019-.211-.044-.26-.299-.091-.468.204-.203.626-.113.77.164.061.117.068.348.015.488-.118.314-.464.478-.816.389-.239-.061-.336-.128-.624-.424-.501-.516-.696-.616-1.418-.73l-.138-.02.157-.134Z"/>
    <path fill-rule="evenodd" d="M5.56 4.84c1.674 2.03 4.253 5.192 4.38 5.369.107.146.067.277-.114.38a1.1 1.1 0 0 1-.412.115.527.527 0 0 1-.345-.147c-.068-.065-.343-.475-.976-1.457-.485-.753-.89-1.377-.902-1.387-.025-.024-.025-.023.852 1.546.551.986.737 1.334.737 1.38 0 .096-.026.145-.143.276-.195.217-.282.462-.345.967-.07.567-.269.967-.818 1.653-.322.4-.374.474-.455.636-.103.204-.13.318-.142.575-.012.271.011.447.094.707.073.228.149.378.343.678.167.26.264.452.264.528 0 .06.011.06.27.001.621-.14 1.126-.387 1.41-.689.175-.187.216-.29.217-.546.001-.168-.005-.203-.05-.3-.074-.157-.208-.287-.504-.49-.388-.265-.554-.478-.6-.772-.037-.24.007-.41.221-.86.222-.466.277-.664.314-1.133.024-.303.058-.423.145-.519.09-.1.172-.134.397-.165.367-.05.6-.144.792-.321a.687.687 0 0 0 .247-.524l.008-.168-.093-.109c-.337-.392-5.017-5.533-5.038-5.533-.004 0 .107.14.247.31Zm2.207 10.213a.298.298 0 0 0-.092-.393c-.12-.08-.307-.042-.307.062 0 .032.017.055.057.076.067.034.072.073.02.152-.054.08-.05.15.011.198.099.077.238.034.31-.095ZM10.676 11.275a.646.646 0 0 0-.391.426c-.032.117-.014.322.034.385.076.102.15.129.35.127.392-.002.732-.17.772-.38.033-.173-.117-.412-.323-.516a.766.766 0 0 0-.442-.042Zm.458.358c.06-.086.034-.179-.069-.241-.195-.12-.491-.021-.491.164 0 .092.154.192.296.192.094 0 .223-.056.264-.115Z" clip-rule="evenodd"/>
  </g>
  <defs>
    <linearGradient id="paint0_linear_9873_18115" x1="12" x2="12" y1="0" y2="24" gradientUnits="userSpaceOnUse">
      <stop stop-color="#FDF4F8"/>
      <stop offset="1" stop-color="#FEE8F4"/>
    </linearGradient>
    <clipPath id="clip0_9873_18115">
      <path fill="#fff" d="M5.186 4.3h12.343v14.4H5.186z"/>
    </clipPath>
  </defs>
</svg>