<svg width="36" height="36" viewBox="0 0 36 36" fill="none" xmlns="http://www.w3.org/2000/svg">
    <path d="M18.0001 36.0001C27.9412 36.0001 36.0001 27.9412 36.0001 18.0001C36.0001 8.05891 27.9412 0 18.0001 0C8.0589 0 0 8.05891 0 18.0001C0 27.9412 8.0589 36.0001 18.0001 36.0001Z" fill="white"/>
    <path d="M10.9133 13.5319C14.8272 9.71105 21.1729 9.71105 25.0868 13.5319L25.5578 13.9917C25.7535 14.1828 25.7535 14.4925 25.5578 14.6835L23.9465 16.2566C23.8486 16.3521 23.69 16.3521 23.5921 16.2566L22.9439 15.6238C20.2135 12.9583 15.7866 12.9583 13.0562 15.6238L12.362 16.3015C12.2641 16.397 12.1055 16.397 12.0076 16.3015L10.3963 14.7284C10.2006 14.5374 10.2006 14.2276 10.3963 14.0366L10.9133 13.5319ZM28.4192 16.7851L29.8533 18.1851C30.049 18.3761 30.049 18.6859 29.8533 18.8769L23.3868 25.1897C23.1912 25.3807 22.8739 25.3807 22.6782 25.1897C22.6782 25.1897 22.6782 25.1897 22.6782 25.1897L18.0887 20.7093C18.0397 20.6616 17.9604 20.6616 17.9115 20.7093L17.9115 20.7093L13.3221 25.1897C13.1264 25.3807 12.8091 25.3807 12.6134 25.1897C12.6134 25.1897 12.6134 25.1897 12.6134 25.1897L6.14677 18.8768C5.95108 18.6858 5.95108 18.376 6.14677 18.185L7.58088 16.785C7.77657 16.594 8.09385 16.594 8.28955 16.785L12.8791 21.2654C12.928 21.3132 13.0074 21.3132 13.0563 21.2654C13.0563 21.2654 13.0563 21.2654 13.0563 21.2654L17.6456 16.785C17.8413 16.5939 18.1586 16.5939 18.3543 16.785C18.3543 16.785 18.3543 16.785 18.3543 16.785L22.9439 21.2654C22.9928 21.3132 23.0721 21.3132 23.121 21.2654L27.7105 16.7851C27.9062 16.594 28.2235 16.594 28.4192 16.7851Z" fill="#3B99FC"/>
</svg>
