<svg width="20" height="20" viewBox="0 0 20 20" fill="none" xmlns="http://www.w3.org/2000/svg">
<g id="logo/wbtc">
<path id="Shape" d="M16.3078 4.19738L15.7587 4.74653C17.069 6.1795 17.7957 8.05097 17.7957 9.99273C17.7957 11.9345 17.069 13.806 15.7587 15.2389L16.3078 15.7881C17.7651 14.2074 18.5741 12.1362 18.5741 9.98633C18.5741 7.83642 17.7651 5.76524 16.3078 4.18457V4.19738Z" fill="#5A5564"/>
<path id="Shape_2" d="M4.75923 4.24515C6.1922 2.93479 8.06367 2.20813 10.0054 2.20813C11.9472 2.20813 13.8187 2.93479 15.2516 4.24515L15.8008 3.696C14.2201 2.23874 12.1489 1.42969 9.99902 1.42969C7.84911 1.42969 5.77793 2.23874 4.19727 3.696L4.75923 4.24515Z" fill="#5A5564"/>
<path id="Shape_3" d="M4.24484 15.2446C2.93604 13.8119 2.21033 11.9416 2.21033 10.0011C2.21033 8.06062 2.93604 6.19029 4.24484 4.75764L3.6957 4.2085C2.23844 5.78916 1.42938 7.86034 1.42938 10.0103C1.42938 12.1602 2.23844 14.2313 3.6957 15.812L4.24484 15.2446Z" fill="#5A5564"/>
<path id="Shape_4" d="M15.2444 15.7515C13.8114 17.0618 11.9399 17.7885 9.99817 17.7885C8.05641 17.7885 6.18494 17.0618 4.75197 15.7515L4.20282 16.3006C5.78349 17.7579 7.85467 18.5669 10.0046 18.5669C12.1545 18.5669 14.2257 17.7579 15.8063 16.3006L15.2444 15.7515Z" fill="#5A5564"/>
<path id="Shape_5" d="M13.467 8.16772C13.3571 7.02183 12.3687 6.63742 11.1185 6.52027V4.94238H10.1519V6.49098C9.89751 6.49098 9.63758 6.49098 9.37948 6.49098V4.94238H8.4203V6.53125H6.45984V7.56548C6.45984 7.56548 7.17373 7.55267 7.16275 7.56548C7.29147 7.55132 7.42066 7.58768 7.5231 7.6669C7.62554 7.74612 7.69323 7.86202 7.7119 7.99016V12.3394C7.70915 12.3846 7.69736 12.4288 7.67724 12.4694C7.65712 12.5099 7.62907 12.546 7.59475 12.5756C7.56107 12.6056 7.52166 12.6286 7.47887 12.6431C7.43609 12.6576 7.39083 12.6632 7.3458 12.6598C7.35861 12.6707 6.64289 12.6598 6.64289 12.6598L6.45984 13.8148H8.402V15.4293H9.3685V13.8386H10.141V15.422H11.1093V13.8258C12.7421 13.7269 13.8807 13.3242 14.0234 11.7958C14.1388 10.5657 13.5603 10.0165 12.6359 9.79503C13.1979 9.51862 13.5457 9.00608 13.467 8.16772ZM12.1124 11.6054C12.1124 12.8062 10.0549 12.6689 9.39962 12.6689V10.5382C10.0549 10.54 12.1124 10.3515 12.1124 11.6054ZM11.6639 8.60338C11.6639 9.70167 9.94693 9.56805 9.40145 9.56805V7.63138C9.94693 7.63138 11.6639 7.45932 11.6639 8.60338Z" fill="#F09242"/>
<path id="Shape_6" d="M9.99817 20C8.02052 19.9996 6.08737 19.4129 4.44316 18.3139C2.79895 17.215 1.51751 15.6532 0.760859 13.826C0.00420949 11.9988 -0.19367 9.98829 0.192241 8.04865C0.578152 6.10901 1.53052 4.32735 2.92894 2.92894C4.32735 1.53052 6.10901 0.578152 8.04865 0.192241C9.98829 -0.19367 11.9988 0.00420949 13.826 0.760859C15.6532 1.51751 17.215 2.79895 18.3139 4.44316C19.4129 6.08737 19.9996 8.02052 20 9.99817C20.0002 11.3117 19.7417 12.6124 19.2392 13.826C18.7366 15.0396 17.9999 16.1423 17.0711 17.0711C16.1423 17.9999 15.0396 18.7366 13.826 19.2392C12.6124 19.7417 11.3117 20.0002 9.99817 20ZM9.99817 0.779796C8.17614 0.781244 6.39544 1.32282 4.88113 2.33606C3.36682 3.3493 2.18688 4.78874 1.49046 6.47242C0.794033 8.1561 0.612381 10.0085 0.968463 11.7954C1.32454 13.5823 2.20237 15.2235 3.491 16.5116C4.77963 17.7997 6.4212 18.6769 8.20824 19.0323C9.99528 19.3876 11.8476 19.2052 13.531 18.5082C15.2144 17.8111 16.6533 16.6306 17.666 15.1158C18.6786 13.6011 19.2195 11.8202 19.2202 9.99817C19.2207 8.78716 18.9825 7.58792 18.5191 6.46904C18.0558 5.35016 17.3765 4.33358 16.52 3.47743C15.6635 2.62128 14.6467 1.94235 13.5276 1.47947C12.4085 1.01659 11.2092 0.778833 9.99817 0.779796Z" fill="#282138"/>
</g>
</svg>
