<svg width="25" height="24" viewBox="0 0 25 24" fill="none" xmlns="http://www.w3.org/2000/svg">
<g id="logo/linea">
<path id="Vector" d="M23.9085 14.9029C22.3056 21.3315 15.7938 25.2438 9.36363 23.6407C2.93621 22.038 -0.97657 15.5265 0.627001 9.09837C2.22916 2.66903 8.74106 -1.24361 15.1692 0.359081C21.5988 1.96177 25.5114 8.47404 23.9083 14.903L23.9085 14.9029H23.9085Z" fill="black"/>
<g id="Group 1000002734">
<path id="Vector_2" d="M16.5869 18.751H5.26123V6.63306H7.85257V16.4025H16.5869V18.7497V18.751Z" fill="white"/>
<path id="Vector_3" d="M16.5869 8.98023C17.8635 8.98023 18.8984 7.92932 18.8984 6.63298C18.8984 5.33665 17.8635 4.28577 16.5869 4.28577C15.3103 4.28577 14.2754 5.33665 14.2754 6.63298C14.2754 7.92932 15.3103 8.98023 16.5869 8.98023Z" fill="white"/>
</g>
</g>
</svg>
