<svg width="20" height="20" viewBox="0 0 20 20" fill="none" xmlns="http://www.w3.org/2000/svg">
<g id="Group 1000002596">
<path id="Vector" d="M9.99786 19.8675L9.99916 16.5177C9.65764 16.5177 9.31345 16.4908 8.97655 16.4376L8.45071 19.7467C8.96069 19.8268 9.48126 19.8675 9.99852 19.8675H9.99786ZM11.545 19.748C12.0563 19.6678 12.5643 19.5476 13.0558 19.3894L12.0187 16.2025C11.695 16.3069 11.3594 16.3864 11.0218 16.4389L11.545 19.748ZM6.93924 19.3874L7.97902 16.2012C7.65466 16.0967 7.3369 15.9654 7.03369 15.8117L5.5024 18.7956C5.96283 19.0294 6.4464 19.2284 6.93924 19.3874ZM14.492 18.7995C14.9531 18.5664 15.399 18.2944 15.8178 17.9916L13.8353 15.2829C13.5599 15.4826 13.2665 15.6613 12.9633 15.8143L14.492 18.7995ZM4.17721 17.9864L6.16169 15.279C5.88755 15.0806 5.62593 14.8573 5.38283 14.6163L2.99869 16.9834L3.00066 16.9854C3.36664 17.3493 3.76236 17.6862 4.17721 17.9864ZM16.9805 17.0058L17.001 16.9848C17.3656 16.6222 17.7039 16.2294 18.0064 15.8176L15.284 13.8439C15.0845 14.1158 14.8606 14.3759 14.6188 14.6169L14.5851 14.6511L15.7306 15.7263L16.9805 17.0058ZM1.99059 15.811L4.71428 13.8392C4.51347 13.5654 4.33378 13.2737 4.17919 12.9723L1.17738 14.4928C1.4119 14.9506 1.68539 15.3939 1.99059 15.8104V15.811ZM18.821 14.4993C19.0561 14.0416 19.2563 13.5608 19.4168 13.0708L16.2122 12.0363C16.1072 12.3588 15.975 12.6747 15.8205 12.9762L18.821 14.4993ZM0.583491 13.0636L3.78878 12.0317C3.68374 11.7099 3.60381 11.3762 3.55028 11.0405L0.222139 11.5621C0.302732 12.0704 0.424284 12.5755 0.583491 13.0642V13.0636ZM19.7789 11.5693C19.8595 11.0622 19.9004 10.5447 19.9011 10.031L16.532 10.0291C16.532 10.3686 16.5049 10.7108 16.4514 11.0465L19.7789 11.5693ZM3.47036 10.0238C3.47036 9.68424 3.49745 9.34137 3.55028 9.0064L0.222139 8.48487C0.141543 8.99193 0.101247 9.50951 0.100586 10.0232H3.46971L3.47036 10.0238ZM16.4527 9.01165L19.7808 8.4921C19.7009 7.98372 19.5794 7.47864 19.4208 6.98995L16.2149 8.01986C16.3199 8.34235 16.3998 8.67537 16.4527 9.01099V9.01165ZM3.78878 8.01591C3.89381 7.69341 4.02593 7.37682 4.17986 7.07534L1.17804 5.55417C0.943525 6.01195 0.74336 6.49275 0.583491 6.98273L3.78812 8.01591H3.78878ZM15.8244 7.07995L18.8276 5.56139C18.593 5.10292 18.3196 4.65958 18.015 4.24315L15.29 6.2136C15.4902 6.48751 15.6699 6.77913 15.8244 7.08061V7.07995ZM4.71562 6.20835C4.91578 5.93511 5.14038 5.6737 5.3835 5.43266L5.39009 5.42607L3.00793 3.0576L3.00133 3.06417C2.63536 3.42805 2.2958 3.8228 1.99258 4.23593L4.71562 6.20835ZM14.6307 5.44447L15.3501 4.71475L17.0063 3.06875L17.001 3.06351C16.637 2.7016 16.2426 2.36598 15.8291 2.06581L13.8433 4.77188C14.1168 4.97026 14.3777 5.19226 14.6188 5.43266L14.6307 5.44447ZM6.16962 4.76466C6.44509 4.56565 6.7384 4.38699 7.04162 4.23395L5.51495 1.24807C5.05383 1.48124 4.60793 1.7525 4.18912 2.0553L6.16962 4.76466ZM12.9719 4.2392L14.5052 1.25661C14.0448 1.02278 13.5619 0.823107 13.069 0.664156L12.0272 3.84972C12.3516 3.9548 12.6694 4.08551 12.9726 4.23986L12.9719 4.2392ZM7.98762 3.84579C8.31198 3.742 8.64757 3.66252 8.98447 3.60998L8.46326 0.300281C7.95259 0.379756 7.44393 0.499954 6.95243 0.658246L7.98762 3.84579ZM11.0304 3.61195L11.5575 0.302907C11.0476 0.222776 10.527 0.181396 10.0104 0.181396L10.0071 3.53115C10.3486 3.53115 10.6928 3.55875 11.0304 3.61195Z" fill="black"/>
<path id="Vector_2" d="M9.99901 16.6653V13.2987C9.71442 13.2987 9.43049 13.2617 9.15591 13.1898L8.27677 16.4422C8.83794 16.5901 9.41713 16.6653 9.99901 16.6653ZM11.7212 16.4422C12.2844 16.2937 12.8262 16.0725 13.3299 15.7847L11.6251 12.8696C11.3799 13.0095 11.1167 13.1171 10.8427 13.1891L11.7212 16.4422ZM6.66741 15.7841L8.37296 12.8696C8.12846 12.7296 7.90199 12.5574 7.69889 12.3573L7.66751 12.327L6.59127 13.4465L5.27053 14.7186L5.28989 14.7371C5.70275 15.145 6.16639 15.4969 6.66808 15.7841H6.66741ZM14.7081 14.7384H14.7088C15.121 14.3298 15.4771 13.8723 15.767 13.3772L12.8182 11.6913C12.6766 11.9329 12.5022 12.1566 12.2998 12.3567L14.7081 14.7384ZM4.22703 13.37L7.17849 11.688C7.03687 11.4457 6.92863 11.1856 6.85582 10.9143L3.56299 11.7797C3.71263 12.3362 3.93642 12.8716 4.22703 13.37ZM16.4337 11.7883C16.5833 11.2338 16.6595 10.6614 16.6602 10.0865L13.2531 10.0852C13.2531 10.367 13.2157 10.6476 13.1422 10.9189L16.4337 11.7883ZM6.74625 10.0812C6.74625 9.79933 6.78368 9.51877 6.85782 9.24747L3.56699 8.37608C3.41668 8.9306 3.33984 9.50293 3.33984 10.0779L6.74691 10.0812H6.74625ZM13.1429 9.25143L16.435 8.38467C16.2847 7.82818 16.0609 7.29281 15.7703 6.7951L12.8195 8.47841C12.9612 8.72067 13.0701 8.98077 13.1429 9.25143ZM7.18182 8.47446C7.32144 8.23616 7.4938 8.015 7.69289 7.81696L7.70158 7.80839L6.48303 6.60432L5.31127 5.41013L5.28989 5.4306C4.87837 5.83724 4.52296 6.2934 4.2337 6.78717L7.18182 8.47446ZM12.3018 7.81234L13.5083 6.62016L14.7395 5.46098L14.7088 5.42994C14.2973 5.02331 13.8343 4.67145 13.3339 4.38496L11.6271 7.29877C11.8682 7.43674 12.0927 7.60705 12.2931 7.80376L12.3018 7.81234ZM8.37496 7.29679C8.61949 7.15684 8.8827 7.0499 9.15725 6.97728L8.28077 3.72418C7.71694 3.8727 7.17582 4.09319 6.67144 4.381L8.37496 7.29679ZM10.8448 6.9786L11.7259 3.72616C11.1648 3.57761 10.5856 3.50237 10.0037 3.50171L10.0017 6.86837C10.2869 6.86837 10.5709 6.90533 10.8454 6.97794L10.8448 6.9786Z" fill="black"/>
</g>
</svg>
