<svg width="25" height="24" viewBox="0 0 25 24" fill="none" xmlns="http://www.w3.org/2000/svg">
<g id="Group 1000002578">
<path id="Rectangle 5604" d="M0.267578 5.14286C0.267578 2.30254 2.57011 0 5.41044 0H19.1247C21.965 0 24.2676 2.30254 24.2676 5.14286V18.8571C24.2676 21.6975 21.965 24 19.1247 24H5.41044C2.57011 24 0.267578 21.6975 0.267578 18.8571V5.14286Z" fill="black"/>
<g id="Group 1000002577">
<path id="Vector" d="M14.9128 8.95312H9.63026C9.40584 8.95312 9.22388 9.13501 9.22388 9.35942V14.642C9.22388 14.8665 9.40584 15.0484 9.63026 15.0484H14.9128C15.1372 15.0484 15.3192 14.8665 15.3192 14.642V9.35942C15.3192 9.13501 15.1372 8.95312 14.9128 8.95312Z" fill="white"/>
<path id="Vector_2" d="M8.81246 2.85767H3.52992C3.3055 2.85767 3.12354 3.03955 3.12354 3.26405V8.54659C3.12354 8.77101 3.3055 8.95297 3.52992 8.95297H8.81246C9.03696 8.95297 9.21884 8.77101 9.21884 8.54659V3.26405C9.21884 3.03955 9.03696 2.85767 8.81246 2.85767Z" fill="white"/>
<path id="Vector_3" d="M21.0035 2.85767H15.7208C15.4964 2.85767 15.3145 3.03955 15.3145 3.26405V8.54659C15.3145 8.77101 15.4964 8.95297 15.7208 8.95297H21.0035C21.2279 8.95297 21.4098 8.77101 21.4098 8.54659V3.26405C21.4098 3.03955 21.2279 2.85767 21.0035 2.85767Z" fill="white"/>
<path id="Vector_4" d="M8.81246 15.0485H3.52992C3.3055 15.0485 3.12354 15.2303 3.12354 15.4548V20.7374C3.12354 20.9618 3.3055 21.1438 3.52992 21.1438H8.81246C9.03696 21.1438 9.21884 20.9618 9.21884 20.7374V15.4548C9.21884 15.2303 9.03696 15.0485 8.81246 15.0485Z" fill="white"/>
<path id="Vector_5" d="M21.0035 15.0485H15.7208C15.4964 15.0485 15.3145 15.2303 15.3145 15.4548V20.7374C15.3145 20.9618 15.4964 21.1438 15.7208 21.1438H21.0035C21.2279 21.1438 21.4098 20.9618 21.4098 20.7374V15.4548C21.4098 15.2303 21.2279 15.0485 21.0035 15.0485Z" fill="white"/>
</g>
</g>
</svg>
