<svg width="21" height="21" viewBox="0 0 21 21" fill="none" xmlns="http://www.w3.org/2000/svg">
<g id="Group 1000002597">
<path id="Vector" d="M19.0197 14.4215V2.51271C19.0038 1.51626 18.2289 0.714233 17.2562 0.714233H5.12499C2.50738 0.75474 0.403809 2.95018 0.403809 5.6398C0.403809 6.54714 0.641055 7.32486 1.00483 8.00537C1.31325 8.57246 1.79565 9.10714 2.27014 9.50413C2.40458 9.61749 2.34132 9.56892 2.75254 9.82817C3.32193 10.1846 3.9704 10.3628 3.9704 10.3628L3.96249 17.4838C3.97831 17.8241 4.00994 18.1481 4.09693 18.4479C4.36581 19.4525 5.04591 20.2221 5.97118 20.5947C6.35868 20.7486 6.79363 20.8539 7.26021 20.8621L16.9477 20.8944C18.8773 20.8944 20.4431 19.2904 20.4431 17.3056C20.451 16.1309 19.8817 15.0778 19.0197 14.4215Z" fill="#FFEEDA"/>
<path id="Vector_2" d="M19.2568 17.3943C19.2172 18.6662 18.1971 19.6869 16.9476 19.6869L10.281 19.6626C10.8108 19.0307 11.135 18.2125 11.135 17.3214C11.135 15.9199 10.3205 14.9558 10.3205 14.9558H16.9555C18.2287 14.9558 19.2646 16.017 19.2646 17.3214L19.2568 17.3943Z" fill="#EBC28E"/>
<path id="Vector_3" d="M2.9028 8.49901C2.1357 7.75369 1.59794 6.78964 1.59794 5.64736V5.52584C1.66121 3.57344 3.22703 2.0018 5.13291 1.94509H17.2641C17.5804 1.96129 17.8335 2.18813 17.8335 2.52028V13.0357C18.1102 13.0843 18.2446 13.1249 18.5136 13.2221C18.7271 13.3031 19.0197 13.4732 19.0197 13.4732V2.52028C19.0038 1.52382 18.2289 0.721802 17.2562 0.721802H5.12499C2.50738 0.762307 0.403809 2.95775 0.403809 5.64736C0.403809 7.2109 1.09973 8.54761 2.23851 9.48733C2.31759 9.55221 2.38876 9.63322 2.59438 9.63322C2.95025 9.63322 3.20331 9.34152 3.18749 9.02559C3.17958 8.75824 3.06887 8.66103 2.9028 8.49901Z" fill="#101010"/>
<path id="Vector_4" d="M16.9477 13.7248H7.43421C6.79365 13.7329 6.27962 14.2596 6.27962 14.9157V16.3172C6.29543 16.9654 6.8332 17.5162 7.47376 17.5162H8.17758V16.3172H7.47376V14.9481C7.47376 14.9481 7.64774 14.9481 7.86126 14.9481C9.0633 14.9481 9.94905 16.0904 9.94905 17.3137C9.94905 18.3993 8.98421 19.7845 7.37095 19.6712C5.93957 19.5739 5.16457 18.2696 5.16457 17.3137V5.43724C5.16457 4.90256 4.73753 4.46509 4.21559 4.46509H3.2666V5.68028H3.97043V17.3218C3.93089 19.6874 5.61533 20.8783 7.37095 20.8783L16.9557 20.9106C18.8853 20.9106 20.4511 19.3066 20.4511 17.3218C20.4511 15.337 18.8774 13.7248 16.9477 13.7248ZM19.2569 17.3947C19.2174 18.6666 18.1972 19.6874 16.9477 19.6874L10.2812 19.663C10.8111 19.0311 11.1353 18.2129 11.1353 17.3218C11.1353 15.9203 10.3207 14.9562 10.3207 14.9562H16.9557C18.2289 14.9562 19.2649 16.0175 19.2649 17.3218L19.2569 17.3947Z" fill="#101010"/>
<path id="Vector_5" d="M14.3834 5.89878H7.21069V4.68359H14.3834C14.7076 4.68359 14.9766 4.95093 14.9766 5.29119C14.9766 5.62333 14.7156 5.89878 14.3834 5.89878Z" fill="#101010"/>
<path id="Vector_6" d="M14.3834 11.6183H7.21069V10.4031H14.3834C14.7076 10.4031 14.9766 10.6705 14.9766 11.0107C14.9766 11.3429 14.7156 11.6183 14.3834 11.6183Z" fill="#101010"/>
<path id="Vector_7" d="M15.6488 8.75889H7.21069V7.5437H15.6408C15.9651 7.5437 16.2339 7.81104 16.2339 8.15129C16.2418 8.48344 15.973 8.75889 15.6488 8.75889Z" fill="#101010"/>
</g>
</svg>
