<svg width="24" height="24" viewBox="0 0 24 24" fill="none" xmlns="http://www.w3.org/2000/svg">
<g id="icons 24/spinner">
<path id="Ellipse 2464" d="M12 2.75C13.2147 2.75 14.4176 2.98926 15.5398 3.45411C16.6621 3.91897 17.6818 4.60032 18.5407 5.45926C19.3997 6.3182 20.081 7.33792 20.5459 8.46018C21.0107 9.58244 21.25 10.7853 21.25 12C21.25 13.2147 21.0107 14.4176 20.5459 15.5398C20.081 16.6621 19.3997 17.6818 18.5407 18.5407C17.6818 19.3997 16.6621 20.081 15.5398 20.5459C14.4176 21.0107 13.2147 21.25 12 21.25C10.7853 21.25 9.58244 21.0107 8.46018 20.5459C7.33791 20.081 6.3182 19.3997 5.45926 18.5407C4.60032 17.6818 3.91897 16.6621 3.45411 15.5398C2.98926 14.4176 2.75 13.2147 2.75 12C2.75 10.7853 2.98926 9.58244 3.45412 8.46017C3.91897 7.33791 4.60032 6.3182 5.45927 5.45926C6.31821 4.60032 7.33792 3.91897 8.46018 3.45411C9.58245 2.98926 10.7853 2.75 12 2.75L12 2.75Z" stroke="#C1C4C9" stroke-width="1.5" stroke-linecap="round"/>
</g>
</svg>
