<svg width="25" height="24" viewBox="0 0 25 24" fill="none" xmlns="http://www.w3.org/2000/svg">
<g id="Group 1000002775">
<path id="Vector" fill-rule="evenodd" clip-rule="evenodd" d="M0.267578 12.0006C0.267578 5.37271 5.64041 0 12.2673 0C18.8953 0 24.2682 5.37271 24.2676 12C24.2676 14.3475 23.5933 16.5373 22.4284 18.3865C22.1072 18.896 21.7494 19.3795 21.3574 19.8341L12.2832 10.7602L4.48023 18.5624L3.19193 19.8507C2.79871 19.3972 2.43974 18.9143 2.11854 18.4054C0.945971 16.5527 0.267578 14.3557 0.267578 12.0006ZM21.0527 16.6766L21.1625 16.457L21.1631 16.4576C21.8516 15.0843 22.2153 13.5427 22.2153 12.0006C22.2153 6.51574 17.7528 2.05344 12.2678 2.05344C6.78286 2.05344 2.32106 6.51574 2.32106 12.0006C2.32106 13.551 2.6883 15.0991 3.38322 16.4776L3.49364 16.6961L12.2832 7.90672L21.0527 16.6766ZM12.2678 24C15.2553 24 17.9884 22.9084 20.089 21.1017L12.2837 13.2959L4.46359 21.1153C6.56135 22.9142 9.28022 24 12.2678 24Z" fill="url(#paint0_linear_6114_2394)"/>
</g>
<defs>
<linearGradient id="paint0_linear_6114_2394" x1="12.2675" y1="-1.12429e-09" x2="12.303" y2="24" gradientUnits="userSpaceOnUse">
<stop stop-color="#169E00"/>
<stop offset="0.49" stop-color="#00C537"/>
<stop offset="1" stop-color="#00B1C9"/>
</linearGradient>
</defs>
</svg>
