<svg xmlns="http://www.w3.org/2000/svg" fill="none" viewBox="0 0 187 28">
  <path fill="#000" d="M9.278 4.156H4.124v5.187h4.313v4.34H0V0h13.59v23.844h10.098V13.682h-9.256v-4.34H28V28H9.278V4.156ZM176.884 22.414h-6.298V5.587h6.298c2.716 0 4.952.793 6.659 2.356 1.706 1.562 2.572 3.581 2.572 6.057 0 2.476-.866 4.52-2.572 6.082-1.707 1.563-3.943 2.332-6.659 2.332Zm-2.837-13.726v10.625h2.549c3.75 0 5.961-1.971 5.961-5.313 0-3.341-2.211-5.312-5.961-5.312h-2.549ZM152.883 22.414h-3.461V5.587h7.788c1.779 0 3.197.457 4.231 1.394 1.034.914 1.563 2.116 1.563 3.582 0 2.236-1.298 3.99-3.486 4.663l5.192 7.188h-4.014l-4.904-6.803h-2.909v6.803Zm0-13.798v4.086h4.135c1.563 0 2.5-.72 2.5-2.043 0-1.274-.937-2.043-2.5-2.043h-4.135ZM129.481 22.413h-3.629l7.211-16.923h3.317l7.212 16.923h-3.678l-1.659-3.894h-7.115l-1.659 3.894Zm5.217-12.596-2.476 5.841h4.928l-2.452-5.84ZM114.965 22.414h-8.461V5.587h7.909c3.076 0 5.096 1.514 5.096 4.207 0 1.706-.962 2.86-2.116 3.341.938.192 1.731.697 2.404 1.49.673.794 1.01 1.78 1.01 3.005 0 1.418-.529 2.572-1.587 3.462-1.057.89-2.476 1.322-4.255 1.322Zm-5-7.38v4.4h4.351c1.707 0 2.741-.77 2.741-2.188 0-1.419-1.034-2.212-2.741-2.212h-4.351Zm0-6.562v3.702h3.895c1.442 0 2.307-.674 2.307-1.827 0-1.178-.865-1.875-2.307-1.875h-3.895ZM86.03 22.414h-3.46V5.587h3.437l4.88 6.971 4.88-6.971h3.413v16.827h-3.414V10.899l-3.87 5.41h-1.923l-3.942-5.41v11.515ZM63.387 17.942c.985 1.034 2.235 1.563 3.726 1.563 1.49 0 2.716-.529 3.702-1.563.985-1.033 1.49-2.356 1.49-3.942 0-1.586-.505-2.909-1.49-3.942-.986-1.034-2.212-1.563-3.702-1.563-1.49 0-2.74.529-3.726 1.563C62.4 11.09 61.92 12.414 61.92 14c0 1.586.481 2.909 1.467 3.942Zm-5-3.942c0-2.452.817-4.52 2.476-6.202 1.658-1.707 3.75-2.548 6.25-2.548s4.567.841 6.226 2.548c1.658 1.683 2.5 3.75 2.5 6.202 0 2.428-.842 4.495-2.5 6.202-1.659 1.707-3.726 2.548-6.226 2.548s-4.592-.841-6.25-2.548c-1.659-1.707-2.476-3.774-2.476-6.202ZM53.995 22.414H42V5.587h3.462v13.726h8.533v3.1Z"/>
</svg>