<svg width="24" height="24" viewBox="0 0 24 24" fill="none" xmlns="http://www.w3.org/2000/svg">
<path d="M23.6409 14.9029C22.0381 21.3316 15.5262 25.2439 9.09605 23.6408C2.66863 22.0381 -1.24415 15.5265 0.359423 9.09843C1.96159 2.66909 8.47348 -1.24354 14.9016 0.359142C21.3313 1.96183 25.2438 8.47411 23.6408 14.903L23.6409 14.9029H23.6409Z" fill="black"/>
<path d="M16.3194 18.7509H4.99365V6.63293H7.58499V16.4024H16.3194V18.7496V18.7509Z" fill="white"/>
<path d="M16.3193 8.98017C17.5959 8.98017 18.6308 7.92926 18.6308 6.63292C18.6308 5.33659 17.5959 4.28571 16.3193 4.28571C15.0427 4.28571 14.0078 5.33659 14.0078 6.63292C14.0078 7.92926 15.0427 8.98017 16.3193 8.98017Z" fill="white"/>
</svg>
