<svg width="24" height="24" viewBox="0 0 24 24" fill="none" xmlns="http://www.w3.org/2000/svg">
<g id="Group 1000002596">
<path id="Vector" d="M11.9973 23.841L11.9989 19.8213C11.5891 19.8213 11.176 19.789 10.7718 19.7251L10.1408 23.696C10.7527 23.7921 11.3774 23.841 11.9981 23.841H11.9973ZM13.8539 23.6975C14.4675 23.6014 15.0771 23.4572 15.6669 23.2672L14.4223 19.4429C14.0338 19.5683 13.6312 19.6636 13.2261 19.7267L13.8539 23.6975ZM8.32699 23.2648L9.57473 19.4414C9.1855 19.3161 8.80419 19.1584 8.44033 18.974L6.60279 22.5547C7.1553 22.8353 7.73559 23.0741 8.32699 23.2648ZM17.3903 22.5594C17.9436 22.2796 18.4787 21.9533 18.9813 21.59L16.6023 18.3395C16.2717 18.5791 15.9198 18.7935 15.5559 18.9771L17.3903 22.5594ZM5.01256 21.5837L7.39393 18.3348C7.06496 18.0967 6.75102 17.8288 6.4593 17.5395L3.59833 20.3801L3.6007 20.3825C4.03987 20.8191 4.51473 21.2235 5.01256 21.5837ZM20.3765 20.4069L20.4011 20.3817C20.8387 19.9466 21.2446 19.4753 21.6076 18.9811L18.3408 16.6126C18.1014 16.9389 17.8326 17.251 17.5425 17.5403L17.5021 17.5813L18.8766 18.8715L20.3765 20.4069ZM2.38861 18.9732L5.65704 16.6071C5.41607 16.2784 5.20044 15.9285 5.01493 15.5667L1.41276 17.3913C1.69418 17.9407 2.02237 18.4727 2.38861 18.9724V18.9732ZM22.5851 17.3992C22.8673 16.8498 23.1075 16.2729 23.3001 15.6849L19.4546 14.4435C19.3285 14.8305 19.17 15.2096 18.9845 15.5714L22.5851 17.3992ZM0.700092 15.6762L4.54644 14.438C4.42039 14.0518 4.32447 13.6514 4.26024 13.2486L0.266469 13.8745C0.363181 14.4845 0.509043 15.0906 0.700092 15.677V15.6762ZM23.7345 13.8831C23.8312 13.2747 23.8804 12.6536 23.8812 12.0372L19.8382 12.0348C19.8382 12.4423 19.8057 12.853 19.7415 13.2557L23.7345 13.8831ZM4.16433 12.0286C4.16433 11.6211 4.19684 11.2096 4.26024 10.8077L0.266469 10.1818C0.169754 10.7903 0.121399 11.4114 0.120605 12.0278H4.16356L4.16433 12.0286ZM19.7431 10.814L23.7369 10.1905C23.641 9.58044 23.4951 8.97434 23.3049 8.38792L19.4577 9.62381C19.5838 10.0108 19.6797 10.4104 19.7431 10.8132V10.814ZM4.54644 9.61906C4.67247 9.23207 4.83102 8.85217 5.01573 8.49039L1.41355 6.66497C1.13213 7.21432 0.891935 7.79128 0.700092 8.37925L4.54564 9.61906H4.54644ZM18.9892 8.49592L22.593 6.67364C22.3116 6.12348 21.9834 5.59147 21.6179 5.09176L18.3479 7.4563C18.5881 7.78498 18.8037 8.13493 18.9892 8.49671V8.49592ZM5.65864 7.45C5.89884 7.1221 6.16836 6.80841 6.4601 6.51917L6.46802 6.51126L3.60942 3.6691L3.6015 3.67697C3.16233 4.11363 2.75486 4.58734 2.391 5.08309L5.65864 7.45ZM17.5568 6.53334L18.42 5.65768L20.4074 3.68248L20.4011 3.67618C19.9643 3.2419 19.491 2.83915 18.9948 2.47894L16.6118 5.72624C16.94 5.96429 17.2531 6.23069 17.5425 6.51917L17.5568 6.53334ZM7.40344 5.71757C7.73401 5.47875 8.08599 5.26436 8.44984 5.08072L6.61784 1.49766C6.0645 1.77746 5.52942 2.10298 5.02684 2.46633L7.40344 5.71757ZM15.5662 5.08702L17.4061 1.5079C16.8536 1.22731 16.2741 0.987704 15.6827 0.796963L14.4326 4.61964C14.8218 4.74574 15.2031 4.90258 15.567 5.08781L15.5662 5.08702ZM9.58504 4.61492C9.97427 4.49038 10.377 4.395 10.7813 4.33195L10.1558 0.360313C9.54302 0.455683 8.93262 0.59992 8.34282 0.78987L9.58504 4.61492ZM13.2364 4.33432L13.869 0.363464C13.257 0.267307 12.6323 0.217651 12.0124 0.217651L12.0084 4.23736C12.4183 4.23736 12.8313 4.27048 13.2364 4.33432Z" fill="black"/>
<path id="Vector_2" d="M11.9988 19.9984V15.9584C11.6573 15.9584 11.3166 15.914 10.9871 15.8277L9.93213 19.7306C10.6055 19.908 11.3006 19.9984 11.9988 19.9984ZM14.0655 19.7306C14.7413 19.5524 15.3914 19.287 15.9959 18.9416L13.9501 15.4435C13.6558 15.6114 13.34 15.7405 13.0113 15.8269L14.0655 19.7306ZM8.0009 18.9408L10.0476 15.4435C9.75416 15.2755 9.48238 15.0688 9.23867 14.8288L9.20101 14.7923L7.90953 16.1358L6.32464 17.6623L6.34787 17.6845C6.8433 18.174 7.39967 18.5962 8.0017 18.9408H8.0009ZM17.6498 17.6861H17.6506C18.1452 17.1957 18.5725 16.6468 18.9204 16.0526L15.3818 14.0295C15.2119 14.3194 15.0026 14.588 14.7597 14.828L17.6498 17.6861ZM5.07244 16.0439L8.61418 14.0255C8.44424 13.7348 8.31436 13.4227 8.22698 13.0971L4.27558 14.1356C4.45516 14.8034 4.7237 15.4459 5.07244 16.0439ZM19.7204 14.1459C19.9 13.4805 19.9914 12.7937 19.9922 12.1038L15.9037 12.1022C15.9037 12.4404 15.8588 12.7771 15.7706 13.1027L19.7204 14.1459ZM8.0955 12.0974C8.0955 11.7592 8.14041 11.4225 8.22938 11.0969L4.28038 10.0513C4.10001 10.7167 4.00781 11.4035 4.00781 12.0935L8.0963 12.0974H8.0955ZM15.7714 11.1017L19.722 10.0616C19.5417 9.39379 19.2731 8.75135 18.9244 8.15409L15.3834 10.1741C15.5534 10.4648 15.6841 10.7769 15.7714 11.1017ZM8.61818 10.1693C8.78573 9.88336 8.99256 9.61798 9.23147 9.38032L9.2419 9.37004L7.77964 7.92516L6.37353 6.49213L6.34787 6.5167C5.85404 7.00466 5.42756 7.55206 5.08044 8.14458L8.61818 10.1693ZM14.7622 9.37479L16.21 7.94416L17.6874 6.55315L17.6506 6.51591C17.1567 6.02795 16.6012 5.60572 16.0007 5.26192L13.9525 8.7585C14.2419 8.92407 14.5112 9.12844 14.7517 9.36448L14.7622 9.37479ZM10.05 8.75612C10.3434 8.58818 10.6592 8.45985 10.9887 8.37272L9.93693 4.46899C9.26033 4.64721 8.61098 4.91181 8.00573 5.25718L10.05 8.75612ZM13.0137 8.3743L14.0711 4.47136C13.3977 4.29311 12.7027 4.20282 12.0044 4.20203L12.002 8.24202C12.3443 8.24202 12.685 8.28637 13.0145 8.37351L13.0137 8.3743Z" fill="black"/>
</g>
</svg>
