<svg width="24" height="24" viewBox="0 0 24 24" fill="none" xmlns="http://www.w3.org/2000/svg">
<g id="logo/manta">
<path id="Vector" fill-rule="evenodd" clip-rule="evenodd" d="M5.57935 20.6054C2.96087 18.6489 1.26196 15.5218 1.26196 12C1.26196 6.07174 6.07174 1.26196 12 1.26196C16.8946 1.26196 22.2391 4.18696 23.5304 8.66738C22.0858 3.66196 17.4718 0 12 0C5.37392 0 0 5.37392 0 12C0 18.6261 5.37392 24 12 24C18.6261 24 24 18.6261 24 12V11.3674H23.3413C23.3218 11.3674 23.2924 11.3674 23.2532 11.3674C23.175 11.3674 23.0641 11.3642 22.9207 11.3576C22.6369 11.3478 22.2457 11.3282 21.8054 11.2892C20.9054 11.2108 19.8782 11.0576 19.1804 10.7772C18.0554 10.3272 17.4196 9.73372 16.6957 9.03585L16.6532 8.99677C15.9261 8.2989 15.1109 7.51305 13.6924 6.84782C12.2968 6.19239 10.7543 6.29674 9.6228 6.53153C9.0489 6.64892 8.55323 6.80543 8.20432 6.93261C8.02822 6.99457 7.88805 7.05326 7.79025 7.09239C7.21957 7.33369 6.66522 7.61738 6.10761 7.88153C6.10761 7.88153 7.20653 8.18153 7.7478 8.3511C7.76738 8.35763 7.79677 8.36737 7.83915 8.38042C7.92067 8.40652 8.03805 8.4489 8.17822 8.50763C8.46525 8.625 8.84025 8.7978 9.21195 9.03915C9.7989 9.41415 10.2847 9.89025 10.4837 10.4707C9.24127 10.6337 8.0739 11.1815 7.2 11.6935C6.67174 12.0032 6.23152 12.3163 5.92174 12.5478C5.76848 12.6652 5.64457 12.7631 5.55978 12.8315C5.48804 12.8903 4.36631 13.8782 4.36631 13.8782C4.36631 13.8782 5.81413 14.0315 6.52826 14.175C7.00435 14.2696 7.64348 14.4261 8.31525 14.6576C8.98695 14.8924 9.66525 15.1989 10.2293 15.5935C10.7935 15.988 11.2076 16.4413 11.4097 16.963C12.0032 18.4826 11.4196 19.9598 10.2489 20.7913C9.09128 21.6131 7.3337 21.8087 5.57609 20.6022L5.57935 20.6054ZM9.675 22.4837C10.1478 22.3304 10.588 22.1054 10.9859 21.825C12.5772 20.6935 13.4153 18.6196 12.5903 16.5065C12.2642 15.675 11.6446 15.0424 10.9565 14.5597C10.2653 14.0772 9.4728 13.725 8.73585 13.4674C8.25323 13.2978 7.78372 13.1674 7.37608 13.0696C7.5228 12.975 7.6761 12.8772 7.84237 12.7793C8.81415 12.2087 10.0402 11.6837 11.2141 11.6837C12.9847 11.6837 14.3022 12.2282 15.5609 12.8087C15.675 12.8609 15.7892 12.9163 15.9065 12.9685C17.0315 13.4968 18.212 14.0511 19.5848 14.0511C20.9576 14.0511 21.9522 13.6761 22.6663 13.2847C22.0304 18.6065 17.5011 22.7347 12.0065 22.7347C11.2076 22.7347 10.4282 22.6468 9.68153 22.4837H9.675ZM21.2968 12.5119C20.8239 12.6718 20.25 12.7892 19.5815 12.7892C18.5054 12.7892 17.5793 12.3587 16.4054 11.8109C16.3011 11.7619 16.1968 11.713 16.0891 11.6642C14.912 11.1196 13.5522 10.5424 11.7815 10.4381C11.5435 9.26737 10.6565 8.46525 9.89348 7.9761C9.80873 7.92067 9.7239 7.86847 9.63915 7.81957C9.71415 7.80323 9.79238 7.78372 9.8739 7.76737C10.8978 7.55542 12.1174 7.50322 13.1511 7.99237C14.3772 8.56958 15.0718 9.23475 15.7924 9.9261L15.8185 9.9489C16.5587 10.6597 17.3446 11.4065 18.7108 11.9543C19.4707 12.2576 20.4554 12.4207 21.2968 12.5119Z" fill="url(#paint0_linear_5681_6093)"/>
</g>
<defs>
<linearGradient id="paint0_linear_5681_6093" x1="-0.215218" y1="12.2218" x2="24.2153" y2="11.775" gradientUnits="userSpaceOnUse">
<stop stop-color="#29CCB9"/>
<stop offset="0.49" stop-color="#0091FF"/>
<stop offset="1" stop-color="#FF66B7"/>
</linearGradient>
</defs>
</svg>
