<svg width="24" height="24" viewBox="0 0 24 24" fill="none" xmlns="http://www.w3.org/2000/svg">
<g id="Group 1000002578">
<path id="Rectangle 5604" d="M0 5.14286C0 2.30254 2.30254 0 5.14286 0H18.8571C21.6975 0 24 2.30254 24 5.14286V18.8571C24 21.6975 21.6975 24 18.8571 24H5.14286C2.30254 24 0 21.6975 0 18.8571V5.14286Z" fill="black"/>
<g id="Group 1000002577">
<path id="Vector" d="M14.6455 8.95312H9.36292C9.13851 8.95312 8.95654 9.13501 8.95654 9.35942V14.642C8.95654 14.8665 9.13851 15.0484 9.36292 15.0484H14.6455C14.8699 15.0484 15.0518 14.8665 15.0518 14.642V9.35942C15.0518 9.13501 14.8699 8.95312 14.6455 8.95312Z" fill="white"/>
<path id="Vector_2" d="M8.54488 2.85773H3.26234C3.03792 2.85773 2.85596 3.03961 2.85596 3.26411V8.54665C2.85596 8.77107 3.03792 8.95303 3.26234 8.95303H8.54488C8.76938 8.95303 8.95126 8.77107 8.95126 8.54665V3.26411C8.95126 3.03961 8.76938 2.85773 8.54488 2.85773Z" fill="white"/>
<path id="Vector_3" d="M20.7359 2.85773H15.4533C15.2288 2.85773 15.0469 3.03961 15.0469 3.26411V8.54665C15.0469 8.77107 15.2288 8.95303 15.4533 8.95303H20.7359C20.9603 8.95303 21.1422 8.77107 21.1422 8.54665V3.26411C21.1422 3.03961 20.9603 2.85773 20.7359 2.85773Z" fill="white"/>
<path id="Vector_4" d="M8.54488 15.0486H3.26234C3.03792 15.0486 2.85596 15.2305 2.85596 15.4549V20.7375C2.85596 20.9619 3.03792 21.1439 3.26234 21.1439H8.54488C8.76938 21.1439 8.95126 20.9619 8.95126 20.7375V15.4549C8.95126 15.2305 8.76938 15.0486 8.54488 15.0486Z" fill="white"/>
<path id="Vector_5" d="M20.7359 15.0486H15.4533C15.2288 15.0486 15.0469 15.2305 15.0469 15.4549V20.7375C15.0469 20.9619 15.2288 21.1439 15.4533 21.1439H20.7359C20.9603 21.1439 21.1422 20.9619 21.1422 20.7375V15.4549C21.1422 15.2305 20.9603 15.0486 20.7359 15.0486Z" fill="white"/>
</g>
</g>
</svg>
