<svg width="24" height="24" viewBox="0 0 24 24" fill="none" xmlns="http://www.w3.org/2000/svg">
<path d="M20.7521 15.4216V3.51277C20.7363 2.51632 19.9613 1.71429 18.9886 1.71429H6.85742C4.23981 1.7548 2.13623 3.95024 2.13623 6.63986C2.13623 7.5472 2.37348 8.32492 2.73725 9.00543C3.04567 9.57252 3.52807 10.1072 4.00256 10.5042C4.137 10.6176 4.07374 10.569 4.48496 10.8282C5.05435 11.1846 5.70282 11.3629 5.70282 11.3629L5.69491 18.4839C5.71073 18.8241 5.74237 19.1482 5.82935 19.4479C6.09823 20.4525 6.77833 21.2221 7.7036 21.5947C8.0911 21.7487 8.52605 21.854 8.99263 21.8622L18.6802 21.8945C20.6097 21.8945 22.1756 20.2905 22.1756 18.3056C22.1834 17.131 21.6141 16.0778 20.7521 15.4216Z" fill="#FFEEDA"/>
<path d="M20.9892 18.3944C20.9497 19.6663 19.9295 20.687 18.68 20.687L12.0134 20.6627C12.5432 20.0309 12.8675 19.2126 12.8675 18.3215C12.8675 16.92 12.0529 15.9559 12.0529 15.9559H18.6879C19.9611 15.9559 20.9971 17.0171 20.9971 18.3215L20.9892 18.3944Z" fill="#EBC28E"/>
<path d="M4.63522 9.49901C3.86812 8.75369 3.33037 7.78964 3.33037 6.64736V6.52584C3.39363 4.57344 4.95945 3.0018 6.86533 2.94509H18.9965C19.3128 2.96129 19.5659 3.18813 19.5659 3.52028V14.0357C19.8426 14.0843 19.9771 14.1249 20.246 14.2221C20.4595 14.3031 20.7521 14.4732 20.7521 14.4732V3.52028C20.7363 2.52382 19.9613 1.7218 18.9886 1.7218H6.85742C4.23981 1.76231 2.13623 3.95775 2.13623 6.64736C2.13623 8.2109 2.83215 9.54761 3.97093 10.4873C4.05001 10.5522 4.12118 10.6332 4.3268 10.6332C4.68267 10.6332 4.93573 10.3415 4.91991 10.0256C4.912 9.75824 4.80129 9.66103 4.63522 9.49901Z" fill="#101010"/>
<path d="M18.6802 14.7249H9.16664C8.52607 14.733 8.01204 15.2596 8.01204 15.9158V17.3172C8.02785 17.9654 8.56562 18.5163 9.20618 18.5163H9.91V17.3172H9.20618V15.9482C9.20618 15.9482 9.38016 15.9482 9.59368 15.9482C10.7957 15.9482 11.6815 17.0904 11.6815 18.3138C11.6815 19.3993 10.7166 20.7846 9.10337 20.6712C7.67199 20.574 6.89699 19.2697 6.89699 18.3138V6.4373C6.89699 5.90262 6.46995 5.46515 5.94801 5.46515H4.99902V6.68034H5.70285V18.3218C5.66331 20.6875 7.34776 21.8783 9.10337 21.8783L18.6881 21.9107C20.6177 21.9107 22.1835 20.3067 22.1835 18.3218C22.1835 16.337 20.6098 14.7249 18.6802 14.7249ZM20.9893 18.3948C20.9498 19.6667 19.9296 20.6875 18.6802 20.6875L12.0136 20.6631C12.5435 20.0312 12.8677 19.2129 12.8677 18.3218C12.8677 16.9203 12.0531 15.9563 12.0531 15.9563H18.6881C19.9613 15.9563 20.9973 17.0176 20.9973 18.3218L20.9893 18.3948Z" fill="#101010"/>
<path d="M16.1158 6.89878H8.94312V5.68359H16.1158C16.4401 5.68359 16.709 5.95093 16.709 6.29119C16.709 6.62333 16.448 6.89878 16.1158 6.89878Z" fill="#101010"/>
<path d="M16.1158 12.6185H8.94312V11.4032H16.1158C16.4401 11.4032 16.709 11.6706 16.709 12.0109C16.709 12.343 16.448 12.6185 16.1158 12.6185Z" fill="#101010"/>
<path d="M17.3812 9.75901H8.94312V8.54382H17.3732C17.6975 8.54382 17.9664 8.81116 17.9664 9.15142C17.9742 9.48356 17.7054 9.75901 17.3812 9.75901Z" fill="#101010"/>
</svg>
