<svg width="24" height="24" viewBox="0 0 24 24" fill="none" xmlns="http://www.w3.org/2000/svg">
<g id="Group 1000002775">
<path id="Vector" fill-rule="evenodd" clip-rule="evenodd" d="M0 12.0006C0 5.37271 5.37283 0 11.9997 0C18.6278 0 24.0006 5.37271 24 12C24 14.3475 23.3257 16.5373 22.1608 18.3865C21.8396 18.896 21.4818 19.3795 21.0898 19.8341L12.0156 10.7602L4.21265 18.5624L2.92435 19.8507C2.53113 19.3972 2.17216 18.9143 1.85097 18.4054C0.678393 16.5527 0 14.3557 0 12.0006ZM20.7851 16.6766L20.895 16.457L20.8956 16.4576C21.584 15.0843 21.9477 13.5427 21.9477 12.0006C21.9477 6.51574 17.4853 2.05344 12.0003 2.05344C6.51529 2.05344 2.05348 6.51574 2.05348 12.0006C2.05348 13.551 2.42072 15.0991 3.11565 16.4776L3.22606 16.6961L12.0156 7.90672L20.7851 16.6766ZM12.0002 24C14.9877 24 17.7208 22.9084 19.8215 21.1017L12.0161 13.2959L4.19601 21.1153C6.29377 22.9142 9.01265 24 12.0002 24Z" fill="url(#paint0_linear_5887_261)"/>
</g>
<defs>
<linearGradient id="paint0_linear_5887_261" x1="12" y1="-1.12429e-09" x2="12.0354" y2="24" gradientUnits="userSpaceOnUse">
<stop stop-color="#169E00"/>
<stop offset="0.49" stop-color="#00C537"/>
<stop offset="1" stop-color="#00B1C9"/>
</linearGradient>
</defs>
</svg>
