<svg width="24" height="24" viewBox="0 0 24 24" fill="none" xmlns="http://www.w3.org/2000/svg">
<circle cx="12" cy="12" r="12" fill="white"/>
<path fill-rule="evenodd" clip-rule="evenodd" d="M7.29176 5.79431C7.33384 5.79431 7.46544 5.90485 7.58122 6.03641C7.70226 6.17325 7.90752 6.33112 8.05486 6.40483C8.20223 6.46796 8.36538 6.52586 8.42328 6.52061C8.48117 6.52061 8.56012 6.55745 8.59695 6.60481C8.6496 6.67323 8.58118 6.76271 8.12857 7.22585C7.83382 7.52056 7.43385 7.97846 7.23911 8.23634C7.04438 8.49421 6.77071 8.89946 6.63387 9.13104C6.49177 9.36261 6.35493 9.62048 6.32861 9.70996C6.29704 9.79944 6.23388 9.93629 6.18125 10.0257C6.13389 10.1152 6.0181 10.4415 5.93389 10.7626C5.84442 11.0836 5.74969 11.5415 5.71811 11.7889C5.68653 12.0362 5.66022 12.4046 5.66022 12.6046C5.66022 12.8099 5.68653 13.1888 5.71811 13.4467C5.74969 13.7046 5.83916 14.1467 5.92337 14.4203C6.00231 14.694 6.16547 15.1203 6.28651 15.3677C6.40756 15.615 6.57598 15.9361 6.66545 16.0782C6.75492 16.2255 6.93912 16.4729 7.07596 16.6308C7.20753 16.7887 7.46544 17.0624 7.63912 17.236C7.81804 17.4097 8.16015 17.6886 8.40222 17.8518C8.64432 18.0149 9.04432 18.2465 9.29167 18.3623C9.53905 18.4834 9.76534 18.5781 9.79165 18.5781C9.81799 18.5781 9.94955 18.6202 10.0811 18.6781C10.2127 18.736 10.5864 18.8202 10.9127 18.8623C11.2337 18.9097 11.7232 18.9465 11.9863 18.9465C12.2547 18.9465 12.7232 18.9097 13.0284 18.8676C13.3547 18.8254 13.7863 18.7202 14.081 18.6149C14.3547 18.515 14.7125 18.3676 14.8704 18.2834C15.0283 18.2044 15.3283 18.0255 15.5283 17.8939C15.7283 17.7571 16.0388 17.515 16.2073 17.3623C16.3809 17.2044 16.6072 16.9887 16.7072 16.8729C16.8125 16.7624 17.0125 16.515 17.1493 16.3203C17.2914 16.1308 17.5283 15.715 17.6861 15.394C17.8598 15.0309 18.0335 14.5677 18.1387 14.1572C18.3072 13.5309 18.3124 13.4572 18.3124 12.6046C18.3072 11.773 18.2966 11.6625 18.144 11.0783C18.0545 10.731 17.9072 10.2836 17.8283 10.0784C17.744 9.8784 17.5967 9.56787 17.5019 9.39419C17.4072 9.22052 17.244 8.94683 17.144 8.78896C17.0388 8.63106 16.8493 8.35737 16.7178 8.18369C16.5862 8.01001 16.2178 7.59952 15.8967 7.27846C15.3809 6.7469 15.3283 6.67323 15.3968 6.60481C15.4388 6.55745 15.523 6.52061 15.5809 6.52061C15.6388 6.52586 15.8073 6.46796 15.9493 6.40483C16.102 6.33112 16.302 6.1785 16.423 6.03641C16.5388 5.89957 16.6651 5.78906 16.702 5.78906C16.7335 5.78906 16.8546 5.8522 16.9651 5.93115C17.0704 6.0101 17.3861 6.26798 17.6598 6.5048C17.9335 6.74165 18.2809 7.0732 18.4282 7.24163C18.5756 7.41531 18.7808 7.65741 18.8808 7.78897C18.9808 7.92057 19.0914 8.07844 19.1229 8.14686C19.1808 8.25211 19.1598 8.28895 18.9124 8.54158C18.7598 8.6942 18.5861 8.91528 18.5282 9.03106C18.4493 9.18893 18.4282 9.34155 18.4282 9.68366C18.4282 10.0152 18.4493 10.1784 18.523 10.3152C18.5756 10.4152 18.6703 10.5731 18.7335 10.6573C18.8019 10.7468 18.9914 10.8994 19.165 10.9994C19.444 11.1573 19.5229 11.1783 19.9229 11.1941C20.2808 11.2046 20.3808 11.2257 20.4334 11.2994C20.4703 11.352 20.5176 11.5941 20.5387 11.8415C20.565 12.0889 20.5755 12.6678 20.5702 13.1309C20.5702 13.5941 20.5387 14.1256 20.5071 14.3151C20.4703 14.5361 20.4176 14.6782 20.3597 14.7203C20.3071 14.7572 20.1966 14.7729 20.1071 14.7519C20.0229 14.7361 19.8176 14.7414 19.6598 14.7572C19.4668 14.7782 19.2808 14.8467 19.1019 14.9624C18.9545 15.0519 18.7598 15.2361 18.6703 15.3677C18.5809 15.4992 18.4809 15.7256 18.4493 15.8677C18.4177 16.015 18.4019 16.2729 18.4177 16.4466C18.4387 16.6571 18.4966 16.8413 18.5966 16.9992C18.6756 17.1308 18.844 17.3202 18.9651 17.4202C19.0914 17.5203 19.1913 17.6255 19.1913 17.6571C19.1913 17.6886 19.0177 17.936 18.8072 18.2097C18.5966 18.4834 18.244 18.8781 18.0282 19.0939C17.8124 19.3096 17.4493 19.6202 17.2283 19.7938C17.0019 19.9623 16.7757 20.1044 16.7283 20.1044C16.6756 20.1096 16.5336 19.9991 16.4125 19.8675C16.2862 19.736 16.0546 19.5676 15.8862 19.4939C15.6757 19.3939 15.4915 19.3518 15.2915 19.3518C15.0915 19.3518 14.9073 19.3939 14.6862 19.4886C14.5126 19.5676 14.2968 19.7097 14.202 19.7991C14.1073 19.8939 13.9705 20.1149 13.8915 20.2886C13.7705 20.5517 13.7494 20.6675 13.7652 21.3675L13.5705 21.4148C13.46 21.4412 13.2021 21.4938 13.0021 21.5254C12.7758 21.5622 12.3126 21.578 11.8179 21.5622C11.3706 21.5464 10.8495 21.5096 10.66 21.478C10.4706 21.4464 10.2969 21.3938 10.2653 21.3622C10.2338 21.3359 10.2127 21.1254 10.2074 20.9043C10.2074 20.6043 10.1759 20.4307 10.0864 20.2359C10.0232 20.0938 9.89694 19.8939 9.80217 19.7991C9.70745 19.7097 9.49169 19.5676 9.31801 19.4939C9.08644 19.3886 8.91801 19.357 8.68643 19.357C8.44433 19.3623 8.29171 19.3991 8.04437 19.5202C7.84435 19.6202 7.64436 19.7675 7.54435 19.8939C7.44963 20.0096 7.32859 20.1044 7.28123 20.1044C7.22858 20.1044 7.10755 20.0517 7.01807 19.9886C6.92333 19.9202 6.67597 19.7307 6.47598 19.557C6.27599 19.3834 5.95495 19.0886 5.776 18.8992C5.5918 18.7097 5.29707 18.3623 5.12866 18.1307C4.95498 17.8992 4.81288 17.6886 4.81288 17.6571C4.81814 17.6255 4.91814 17.5203 5.03919 17.415C5.1655 17.3097 5.33391 17.0992 5.42338 16.9413C5.56022 16.6939 5.58127 16.6045 5.57601 16.2361C5.57601 15.9256 5.5497 15.7624 5.47601 15.6045C5.41812 15.494 5.26549 15.294 5.13392 15.1677C5.00234 15.0361 4.82867 14.894 4.7392 14.8519C4.6392 14.7993 4.40236 14.7625 4.08132 14.7519C3.80765 14.7466 3.57607 14.7309 3.57081 14.7256C3.56555 14.7151 3.52871 14.5677 3.49187 14.394C3.45503 14.2045 3.42871 13.6414 3.42871 12.973C3.42871 12.2836 3.44976 11.7467 3.49187 11.552C3.52871 11.3783 3.56555 11.231 3.57081 11.2205C3.57607 11.2152 3.79712 11.1994 4.05501 11.1941C4.49183 11.1783 4.55499 11.1626 4.84446 10.9889C5.05497 10.8626 5.21813 10.7204 5.32865 10.5468C5.42338 10.4047 5.52864 10.1573 5.56022 9.99943C5.60759 9.77839 5.60759 9.6363 5.56022 9.39419C5.52864 9.22052 5.43917 8.98366 5.36023 8.86788C5.28654 8.75209 5.14445 8.59422 5.04971 8.51527C4.94445 8.42579 4.87077 8.32054 4.87077 8.25211C4.87077 8.18369 4.99182 7.96265 5.13918 7.76267C5.29181 7.56268 5.64443 7.16796 5.9181 6.89427C6.19704 6.61534 6.60229 6.25745 6.81807 6.0943C7.03385 5.92587 7.24964 5.79431 7.29176 5.79431ZM7.36015 17.615C7.53911 17.7781 7.86541 18.0465 8.0812 18.2044C8.30224 18.3676 8.69168 18.6044 8.94959 18.7255C9.21272 18.8518 9.49169 18.9939 9.58113 19.036C9.67061 19.0781 10.0337 19.1886 10.3969 19.2781C11.0179 19.436 11.1074 19.4465 12.0021 19.4465C12.8916 19.4412 12.9863 19.436 13.581 19.2781C13.9284 19.1886 14.381 19.0412 14.581 18.957C14.781 18.8728 15.0915 18.7202 15.2652 18.6202C15.4388 18.5202 15.7125 18.3465 15.8757 18.2307C16.0388 18.1202 16.2756 17.936 16.402 17.8308C16.5283 17.7202 16.623 17.6202 16.6072 17.6097C16.5914 17.5939 16.402 17.7202 16.1862 17.8887C15.9704 18.0518 15.6494 18.2729 15.4757 18.3781C15.302 18.4781 15.0283 18.6307 14.8704 18.7097C14.7125 18.7886 14.3442 18.9307 14.0547 19.0255C13.7652 19.1202 13.3758 19.2307 13.1863 19.2676C12.9968 19.3044 12.4652 19.3307 12.0021 19.3307C11.539 19.3307 11.0074 19.3044 10.8179 19.2676C10.6285 19.2307 10.218 19.1149 9.89694 19.0044C9.58113 18.8939 9.14958 18.7149 8.94959 18.6097C8.74957 18.5044 8.49698 18.3623 8.39697 18.2992C8.29171 18.236 8.11275 18.115 8.00225 18.0255C7.88646 17.9413 7.62331 17.7202 7.41804 17.536C7.21281 17.3518 7.04438 17.2255 7.03913 17.2571C7.03385 17.2887 7.17597 17.4518 7.36015 17.615Z" fill="black"/>
<path d="M12.054 0C12.0961 0 12.1487 0.0368408 12.1751 0.0842077C12.1996 0.136837 12.1681 0.205255 12.0803 0.289464C12.0067 0.363147 11.9225 0.399989 11.8856 0.378934C11.8435 0.352621 11.8435 0.29999 11.8962 0.168417C11.9382 0.0789449 12.0067 0 12.054 0ZM13.8487 1.68416C13.8908 1.68416 13.9276 1.70521 13.9382 1.73152C13.9487 1.7631 13.9119 1.92625 13.8592 2.09993C13.8066 2.27887 13.7645 2.52097 13.7645 2.64202C13.7645 2.76833 13.8224 3.03148 13.8908 3.23674C13.954 3.43672 14.1224 3.80513 14.2645 4.05252C14.4013 4.29986 14.5961 4.64194 14.6908 4.81562C14.7908 4.9893 14.9118 5.27351 14.9697 5.44719C15.0276 5.62087 15.0855 5.86297 15.1013 5.984C15.1223 6.15244 15.1118 6.2261 15.0539 6.26294C14.996 6.30506 14.9118 6.26822 14.7224 6.11032C14.5855 5.99982 14.2382 5.66299 13.9487 5.36299C13.654 5.063 13.3224 4.68406 13.2066 4.52615C13.0908 4.36829 12.954 4.13672 12.9066 4.0104C12.8593 3.88933 12.8172 3.67882 12.8172 3.54197C12.8172 3.39988 12.854 3.17358 12.9014 3.02622C12.954 2.88412 13.075 2.63149 13.175 2.4736C13.275 2.31571 13.454 2.07362 13.5698 1.93678C13.6855 1.79468 13.8119 1.68416 13.8487 1.68416ZM9.39095 4.36829C9.40676 4.36829 9.44884 4.38935 9.48043 4.41037C9.51201 4.43143 9.5541 4.67353 9.56991 4.94722C9.59093 5.29982 9.64358 5.57875 9.75412 5.89456C9.83831 6.14191 10.012 6.54187 10.1383 6.78397C10.2646 7.02608 10.4014 7.28923 10.4435 7.3629C10.4857 7.43661 10.5909 7.62082 10.6856 7.76291C10.7751 7.91028 11.0067 8.27341 11.1962 8.57865C11.3804 8.88393 11.6119 9.25759 11.7014 9.41021C11.7961 9.55759 11.8698 9.69443 11.8698 9.71021C11.8698 9.72598 11.9488 9.91019 12.0488 10.1207C12.1487 10.326 12.2803 10.7365 12.3382 11.026C12.4014 11.3154 12.4487 11.6312 12.4487 11.7259C12.4487 11.8154 12.4224 12.0049 12.3908 12.147C12.3593 12.2838 12.2961 12.5154 12.254 12.6575C12.2066 12.8048 12.0803 13.0733 11.9698 13.2627C11.8593 13.4522 11.5856 13.7943 11.3593 14.0259C11.133 14.2574 10.7857 14.589 10.5856 14.7627C10.3857 14.9363 10.133 15.1732 10.0225 15.289C9.91198 15.4048 9.75936 15.5837 9.68569 15.6837C9.61199 15.7837 9.48043 16.0416 9.39623 16.2521C9.26991 16.5573 9.23833 16.7047 9.23833 17.0152C9.24357 17.2942 9.22255 17.41 9.15937 17.4626C9.11729 17.4942 9.04359 17.5152 9.00151 17.4994C8.95939 17.4836 8.78571 17.3679 8.62256 17.2416C8.45413 17.1152 8.12783 16.8153 7.89626 16.5731C7.66469 16.331 7.3647 15.9679 7.23313 15.7626C7.10154 15.5574 6.91735 15.2416 6.83314 15.0521C6.74367 14.8627 6.60157 14.4522 6.50684 14.1311C6.39105 13.7153 6.33316 13.389 6.31211 12.9733C6.29632 12.6522 6.30684 12.168 6.33316 11.8944C6.36474 11.6207 6.46473 11.1365 6.5542 10.8155C6.64894 10.4944 6.78051 10.1207 6.85419 9.97336C6.92788 9.83127 7.08576 9.54181 7.20683 9.33126C7.32262 9.12603 7.45942 8.94707 7.50679 8.93654C7.56996 8.92601 7.58574 8.9576 7.57521 9.05232C7.56996 9.12603 7.5226 9.35232 7.47524 9.5523C7.42259 9.78387 7.39628 10.0786 7.40681 10.347C7.42259 10.7207 7.44365 10.7996 7.58049 10.9944C7.66997 11.1154 7.78576 11.2312 7.84365 11.247C7.90154 11.2681 8.06994 11.2786 8.21203 11.2786C8.3594 11.2786 8.55414 11.2365 8.64887 11.1891C8.73835 11.1418 8.93833 10.9786 9.08042 10.8312C9.25938 10.6453 9.39974 10.4295 9.50149 10.1839C9.58568 9.98389 9.67516 9.62072 9.70672 9.38391C9.74883 9.07338 9.74883 8.82075 9.70672 8.51023C9.67516 8.27341 9.53304 7.6629 9.3857 7.15767C9.13307 6.30506 9.11201 6.19455 9.11201 5.65771C9.10676 5.1735 9.12779 5.02088 9.23308 4.72089C9.30147 4.52615 9.37517 4.36829 9.39095 4.36829Z" fill="#FF6600"/>
<path d="M11.886 0.368164C11.9123 0.368164 11.9334 0.420792 11.9387 0.489211C11.9439 0.552368 11.8966 0.794465 11.8281 1.02604C11.744 1.3155 11.6966 1.64707 11.6755 2.07863C11.6492 2.65756 11.6597 2.74703 11.7808 3.15755C11.8597 3.40489 11.9913 3.74175 12.0808 3.91015C12.165 4.0733 12.3544 4.38382 12.4966 4.58909C12.6386 4.7996 12.8755 5.11537 13.0281 5.28905C13.1807 5.46273 13.807 6.09955 14.4175 6.71006C15.0333 7.32058 15.6543 7.96265 15.7965 8.13633C15.9385 8.31529 16.1859 8.64159 16.3438 8.86263C16.5017 9.08367 16.7385 9.47315 16.8701 9.72574C17.0017 9.97837 17.1859 10.3731 17.2753 10.6047C17.3648 10.8362 17.4964 11.2625 17.5595 11.552C17.6437 11.9362 17.6753 12.2467 17.6753 12.7099C17.6753 13.0572 17.649 13.473 17.6069 13.6309C17.5701 13.7888 17.4964 14.0835 17.4385 14.2887C17.3806 14.494 17.249 14.8467 17.1385 15.0782C17.0332 15.3098 16.8385 15.6519 16.7122 15.8414C16.5911 16.0308 16.2596 16.4098 15.9806 16.6834C15.7017 16.9571 15.3438 17.2676 15.1859 17.3729C15.028 17.4781 14.8017 17.615 14.686 17.6729C14.5702 17.736 14.307 17.8571 14.107 17.9413C13.9018 18.0255 13.5228 18.1518 13.2649 18.215C12.886 18.3097 12.6281 18.3308 12.0018 18.336C11.4176 18.336 11.1124 18.3149 10.8177 18.2465C10.6019 18.1939 10.3703 18.115 10.3019 18.0728C10.2229 18.0202 10.1703 17.9097 10.123 17.6939C10.0756 17.4624 10.0756 17.3202 10.123 17.0781C10.1598 16.9045 10.2492 16.6413 10.3229 16.4992C10.4019 16.3519 10.5387 16.1255 10.6282 15.9887C10.7177 15.8519 11.065 15.4519 11.3966 15.0992C11.7281 14.7466 12.1176 14.3151 12.2597 14.1361C12.4018 13.9624 12.6018 13.6361 12.7123 13.4204C12.8229 13.2046 12.9597 12.8099 13.0228 12.552C13.0807 12.2941 13.1334 11.9362 13.1334 11.7625C13.1334 11.5888 13.086 11.2204 13.0281 10.9468C12.9755 10.6731 12.8913 10.352 12.8492 10.2362C12.807 10.1205 12.7176 9.89417 12.6439 9.73627C12.5755 9.5784 12.4439 9.32577 12.3597 9.18368C12.2755 9.03631 12.1018 8.74156 11.9755 8.5258C11.8492 8.31001 11.7071 8.08896 11.665 8.03107C11.6176 7.97843 11.5334 7.85739 11.4755 7.75738C11.4176 7.66266 11.265 7.43637 11.1334 7.25216C10.9966 7.06795 10.8019 6.7732 10.6966 6.589C10.5808 6.3943 10.4387 6.02588 10.3387 5.66799C10.1861 5.12065 10.1756 5.03117 10.2019 4.4733C10.2177 4.06277 10.2703 3.68911 10.3703 3.31543C10.444 3.01018 10.5913 2.53651 10.6966 2.26284C10.7966 1.98916 10.9755 1.58391 11.0966 1.36813C11.2124 1.15235 11.3703 0.8892 11.4387 0.789201C11.5124 0.689205 11.6334 0.552368 11.7071 0.489211C11.7808 0.420792 11.865 0.368164 11.886 0.368164Z" fill="#F4129A"/>
</svg>
