<svg width="28" height="28" viewBox="0 0 28 28" fill="none" xmlns="http://www.w3.org/2000/svg">
<path d="M27.5811 17.3867C25.7111 24.8867 18.1139 29.4511 10.6121 27.5809C3.1134 25.7111 -1.45151 18.1142 0.419326 10.6148C2.28852 3.11387 9.88573 -1.45087 17.3852 0.418928C24.8865 2.28873 29.4511 9.88638 27.5809 17.3868L27.581 17.3867H27.5811Z" fill="#3A9997"/>
<path d="M20.1737 12.0049C20.4524 10.1418 19.0338 9.14032 17.094 8.47223L17.7233 5.94851L16.1869 5.56571L15.5743 8.02299C15.1703 7.92226 14.7555 7.82734 14.3433 7.73325L14.9603 5.25975L13.4248 4.87695L12.7952 7.39986C12.4609 7.32376 12.1326 7.24856 11.8141 7.16931L11.8159 7.16138L9.69711 6.63234L9.2884 8.27317C9.2884 8.27317 10.4283 8.53444 10.4043 8.55052C11.0265 8.70579 11.139 9.1176 11.1203 9.44402L10.4035 12.3191C10.4463 12.33 10.5019 12.3458 10.5632 12.3704C10.5119 12.3577 10.4574 12.3438 10.4008 12.3302L9.39605 16.3578C9.32001 16.5469 9.12702 16.8305 8.69202 16.7228C8.70742 16.7451 7.57532 16.4441 7.57532 16.4441L6.8125 18.2027L8.81193 18.7011C9.18389 18.7943 9.54839 18.8919 9.90735 18.9837L9.27156 21.5363L10.8062 21.9191L11.4359 19.3936C11.8551 19.5074 12.262 19.6123 12.6603 19.7113L12.0328 22.225L13.5693 22.6078L14.205 20.0599C16.825 20.5557 18.795 20.3558 19.6242 17.9863C20.2923 16.0786 19.5909 14.9782 18.2126 14.2607C19.2165 14.0292 19.9727 13.3689 20.1743 12.0051L20.1738 12.0048L20.1737 12.0049ZM16.6633 16.9268C16.1885 18.8346 12.9761 17.8033 11.9346 17.5447L12.7783 14.1629C13.8198 14.4228 17.1596 14.9373 16.6634 16.9268H16.6633ZM17.1385 11.9773C16.7053 13.7125 14.0317 12.8309 13.1643 12.6148L13.9293 9.54762C14.7966 9.7638 17.5897 10.1673 17.1386 11.9773H17.1385Z" fill="white"/>
</svg>
