<svg width="122" height="93" viewBox="0 0 122 93" fill="none" xmlns="http://www.w3.org/2000/svg">
<mask id="mask0_7546_1103" style="mask-type:alpha" maskUnits="userSpaceOnUse" x="31" y="0" width="91" height="91">
<rect x="31.5278" y="0.213867" width="90.472" height="90.472" rx="20" fill="#45A19A"/>
</mask>
<g mask="url(#mask0_7546_1103)">
<rect x="31.5278" y="0.213867" width="90.472" height="90.472" rx="20" fill="url(#paint0_linear_7546_1103)"/>
<rect x="46.8647" y="15.5508" width="59.7978" height="59.7978" rx="8" stroke="url(#paint1_linear_7546_1103)" stroke-width="6"/>
<g filter="url(#filter0_f_7546_1103)">
<rect x="31.5278" y="48.1914" width="42.4944" height="42.4944" rx="16" fill="#113D3D"/>
</g>
</g>
<path d="M56.7156 70.2323C52.8569 85.6712 37.248 95.0449 21.8132 91.1851C6.40747 87.3544 -2.99265 71.7414 0.866042 56.3025C4.69572 40.8926 20.3336 31.4899 35.7393 35.3497C51.1741 39.2094 60.5452 54.8224 56.7156 70.2323Z" fill="#3A9997"/>
<path d="M41.4838 59.1754C42.0641 55.3447 39.1338 53.2842 35.1591 51.9203L36.4646 46.7256L33.3023 45.942L32.0547 50.9916C31.2133 50.7885 30.372 50.5853 29.5306 50.3822L30.8072 45.3036L27.6448 44.52L26.3392 49.7147C25.6429 49.5696 24.9756 49.3955 24.3083 49.2504L19.9564 48.1476L19.115 51.514C19.115 51.514 21.4651 52.0654 21.407 52.0944C22.6836 52.4136 22.9157 53.2552 22.8867 53.9227L21.407 59.8429C21.407 59.8429 21.6101 59.9009 21.7262 59.9589C21.6101 59.9589 21.5231 59.9009 21.378 59.8719L19.3181 68.1427C19.1731 68.52 18.7669 69.1004 17.8675 68.8973C17.8965 68.9553 15.5755 68.3168 15.5755 68.3168L14.0088 71.9444L18.1286 72.9601C18.8829 73.1633 19.6373 73.3664 20.3916 73.5405L19.086 78.7933L22.2484 79.5768L23.554 74.3821C24.4244 74.6143 25.2657 74.8465 26.0781 75.0496L24.8015 80.2153L27.9639 80.9988L29.2695 75.7461C34.6659 76.7618 38.6986 76.3555 40.4104 71.4801C41.774 67.5623 40.3524 65.2987 37.5091 63.8187C39.569 63.3543 41.1357 61.9904 41.5419 59.1754H41.4838ZM34.2597 69.3035C33.2732 73.2213 26.6874 71.1028 24.5404 70.5804L26.2812 63.6155C28.4281 64.1379 35.2751 65.2117 34.2597 69.3035ZM35.2461 59.1173C34.3467 62.6869 28.8633 60.8586 27.0645 60.4233L28.6312 54.1258C30.401 54.5611 36.1455 55.4027 35.2171 59.1173H35.2461Z" fill="white"/>
<path d="M94 45.4181C93.9773 40.7358 92.2093 36.3579 88.9907 33.1037C85.772 29.8261 81.5333 28 77.0227 28C72.512 28 68.228 29.7559 65.032 33.0569C61.836 36.3344 60.068 40.6656 60 45.3946C60 45.3946 60 45.3946 60 45.4181C60 45.4415 60 45.4649 60 45.4883C60 50.1472 61.7453 54.5485 64.9413 57.8495C68.16 61.1739 72.4213 63 76.9773 63C81.5333 63 85.84 61.1739 89.0587 57.8261C92.232 54.5017 93.9547 50.1237 93.9773 45.3712L94 45.4181ZM87.2 47.7592H89.2627C88.968 49.5619 88.288 51.2475 87.3133 52.7458L86.0213 51.4114L85.8853 51.2709C85.4773 50.8729 84.9333 50.592 84.3213 50.592C83.0747 50.592 82.0773 51.6455 82.0547 52.9331V53.9398L84.1627 56.1171C82.712 57.1706 81.08 57.8729 79.312 58.2007V56.0936C79.312 54.806 78.292 53.7525 77.0453 53.7525C75.7987 53.7525 74.7787 54.806 74.7787 56.0936V58.2007C73.0333 57.8729 71.4013 57.1706 69.9507 56.1171L71.4013 54.6187C72.2853 53.7057 72.2853 52.2308 71.4013 51.3177C70.5173 50.4047 69.0893 50.4047 68.2053 51.3177L66.7773 52.8161C65.78 51.3177 65.1227 49.6321 64.828 47.8294H66.868C68.1147 47.8294 69.1347 46.7759 69.1347 45.4883C69.1347 44.2007 68.1147 43.1472 66.868 43.1472H64.828C65.1453 41.3913 65.8253 39.7291 66.8227 38.2542L68.2733 39.7525C68.7267 40.2207 69.2933 40.4314 69.8827 40.4314C70.472 40.4314 71.0387 40.1973 71.492 39.7525C72.376 38.8395 72.376 37.3645 71.492 36.4515L70.0413 34.9766C71.4693 33.9699 73.0787 33.291 74.7787 32.9632V35.0702C74.7787 36.3579 75.7987 37.4114 77.0453 37.4114C78.292 37.4114 79.312 36.3579 79.312 35.0702V32.9632C81.012 33.291 82.6213 33.9699 84.0493 34.9766L82.5987 36.4515C81.7147 37.3645 81.7147 38.8395 82.5987 39.7525C83.052 40.2207 83.6187 40.4314 84.208 40.4314C84.7973 40.4314 85.364 40.1973 85.8173 39.7525L87.2907 38.2542C88.288 39.7057 88.968 41.3679 89.2853 43.1472H87.2453C85.9987 43.1472 84.9787 44.2007 84.9787 45.4883C84.9787 46.7759 85.9987 47.8294 87.2453 47.8294L87.2 47.7592Z" fill="black"/>
<path d="M94 45.4181C93.9773 40.7358 92.2093 36.3579 88.9907 33.1037C85.772 29.8261 81.5333 28 77.0227 28C72.512 28 68.228 29.7559 65.032 33.0569C61.836 36.3344 60.068 40.6656 60 45.3946C60 45.3946 60 45.3946 60 45.4181C60 45.4415 60 45.4649 60 45.4883C60 50.1472 61.7453 54.5485 64.9413 57.8495C68.16 61.1739 72.4213 63 76.9773 63C81.5333 63 85.84 61.1739 89.0587 57.8261C92.232 54.5017 93.9547 50.1237 93.9773 45.3712L94 45.4181ZM87.2 47.7592H89.2627C88.968 49.5619 88.288 51.2475 87.3133 52.7458L86.0213 51.4114L85.8853 51.2709C85.4773 50.8729 84.9333 50.592 84.3213 50.592C83.0747 50.592 82.0773 51.6455 82.0547 52.9331V53.9398L84.1627 56.1171C82.712 57.1706 81.08 57.8729 79.312 58.2007V56.0936C79.312 54.806 78.292 53.7525 77.0453 53.7525C75.7987 53.7525 74.7787 54.806 74.7787 56.0936V58.2007C73.0333 57.8729 71.4013 57.1706 69.9507 56.1171L71.4013 54.6187C72.2853 53.7057 72.2853 52.2308 71.4013 51.3177C70.5173 50.4047 69.0893 50.4047 68.2053 51.3177L66.7773 52.8161C65.78 51.3177 65.1227 49.6321 64.828 47.8294H66.868C68.1147 47.8294 69.1347 46.7759 69.1347 45.4883C69.1347 44.2007 68.1147 43.1472 66.868 43.1472H64.828C65.1453 41.3913 65.8253 39.7291 66.8227 38.2542L68.2733 39.7525C68.7267 40.2207 69.2933 40.4314 69.8827 40.4314C70.472 40.4314 71.0387 40.1973 71.492 39.7525C72.376 38.8395 72.376 37.3645 71.492 36.4515L70.0413 34.9766C71.4693 33.9699 73.0787 33.291 74.7787 32.9632V35.0702C74.7787 36.3579 75.7987 37.4114 77.0453 37.4114C78.292 37.4114 79.312 36.3579 79.312 35.0702V32.9632C81.012 33.291 82.6213 33.9699 84.0493 34.9766L82.5987 36.4515C81.7147 37.3645 81.7147 38.8395 82.5987 39.7525C83.052 40.2207 83.6187 40.4314 84.208 40.4314C84.7973 40.4314 85.364 40.1973 85.8173 39.7525L87.2907 38.2542C88.288 39.7057 88.968 41.3679 89.2853 43.1472H87.2453C85.9987 43.1472 84.9787 44.2007 84.9787 45.4883C84.9787 46.7759 85.9987 47.8294 87.2453 47.8294L87.2 47.7592Z" fill="url(#paint2_linear_7546_1103)"/>
<defs>
<filter id="filter0_f_7546_1103" x="12.2278" y="28.8914" width="81.0946" height="81.0946" filterUnits="userSpaceOnUse" color-interpolation-filters="sRGB">
<feFlood flood-opacity="0" result="BackgroundImageFix"/>
<feBlend mode="normal" in="SourceGraphic" in2="BackgroundImageFix" result="shape"/>
<feGaussianBlur stdDeviation="9.65" result="effect1_foregroundBlur_7546_1103"/>
</filter>
<linearGradient id="paint0_linear_7546_1103" x1="76.7638" y1="0.213867" x2="76.7638" y2="90.6858" gradientUnits="userSpaceOnUse">
<stop stop-color="#7BC4BF"/>
<stop offset="1" stop-color="#419E98"/>
</linearGradient>
<linearGradient id="paint1_linear_7546_1103" x1="51.4568" y1="16.9795" x2="93.2131" y2="78.3486" gradientUnits="userSpaceOnUse">
<stop stop-color="#EAF8F7"/>
<stop offset="1" stop-color="#C2E7E3"/>
</linearGradient>
<linearGradient id="paint2_linear_7546_1103" x1="63.9231" y1="30.3558" x2="86.364" y2="62.3948" gradientUnits="userSpaceOnUse">
<stop stop-color="#EAF8F7"/>
<stop offset="1" stop-color="#C2E7E3"/>
</linearGradient>
</defs>
</svg>
