<svg width="18" height="18" viewBox="0 0 18 18" fill="none" xmlns="http://www.w3.org/2000/svg">
<mask id="mask0_7567_994" style="mask-type:luminance" maskUnits="userSpaceOnUse" x="0" y="0" width="18" height="18">
<path d="M17.5716 0.285645H0.428711V17.4285H17.5716V0.285645Z" fill="white"/>
</mask>
<g mask="url(#mask0_7567_994)">
<path d="M2.45264 11.7269V16.3798C2.45264 16.6661 2.69505 16.7851 2.77045 16.8121C2.84587 16.8444 3.09905 16.9147 3.32529 16.704L6.84522 13.3214C7.14497 13.0334 7.43427 12.7306 7.65167 12.3763C7.75399 12.2098 7.79641 12.1159 7.79641 12.1159C8.01191 11.6782 8.01191 11.2567 7.80173 10.8351C7.48942 10.2083 6.6921 9.57059 5.49078 8.96533L3.43843 10.111C2.82973 10.4569 2.45264 11.0675 2.45264 11.7269Z" fill="#00378A"/>
<path d="M0.428711 1.37863V6.25851C0.428711 6.86916 0.83812 7.40957 1.41991 7.5825C3.40227 8.15533 6.85524 9.38745 7.69022 11.1979C7.79787 11.4356 7.86254 11.668 7.88422 11.9111C8.43904 10.9006 8.6922 9.73871 8.5737 8.56063C8.41203 6.89077 7.52854 5.37223 6.14958 4.4049L1.23136 0.962509C1.14516 0.89766 1.04282 0.865234 0.940467 0.865234C0.854268 0.865234 0.778854 0.881447 0.698055 0.92468C0.536441 1.01655 0.428711 1.18408 0.428711 1.37863Z" fill="#2E4DFF"/>
<path d="M15.5442 11.7269V16.3798C15.5442 16.6662 15.3018 16.7851 15.2263 16.8121C15.151 16.8444 14.8977 16.9147 14.6715 16.704L11.0696 13.2427C10.8245 13.007 10.5903 12.7578 10.4056 12.4723C10.2594 12.2462 10.2004 12.1159 10.2004 12.1159C9.98491 11.6782 9.98491 11.2567 10.1949 10.8351C10.5074 10.2083 11.3047 9.57059 12.5058 8.96533L14.5583 10.111C15.1725 10.4569 15.5442 11.0675 15.5442 11.7269Z" fill="#00378A"/>
<path d="M17.5716 1.37764V6.25752C17.5716 6.86818 17.1621 7.40858 16.5803 7.58152C14.5979 8.15435 11.145 9.38649 10.3101 11.1969C10.2022 11.4346 10.1376 11.667 10.1161 11.9102C9.56124 10.8996 9.30808 9.73775 9.42657 8.55966C9.58806 6.88979 10.4715 5.37126 11.8507 4.40394L16.769 0.961531C16.8551 0.896681 16.9574 0.864258 17.0598 0.864258C17.1459 0.864258 17.2214 0.880471 17.3021 0.923703C17.4638 1.01557 17.5716 1.1831 17.5716 1.37764Z" fill="#2E4DFF"/>
</g>
</svg>
