<svg width="24" height="24" viewBox="0 0 24 24" fill="none" xmlns="http://www.w3.org/2000/svg">
<path d="M12 24C18.6274 24 24 18.6274 24 12C24 5.37258 18.6274 0 12 0C5.37258 0 0 5.37258 0 12C0 18.6274 5.37258 24 12 24Z" fill="#DEDEDE"/>
<mask id="mask0_6113_1083" style="mask-type:alpha" maskUnits="userSpaceOnUse" x="0" y="0" width="24" height="24">
<path d="M12 24C18.6274 24 24 18.6274 24 12C24 5.37258 18.6274 0 12 0C5.37258 0 0 5.37258 0 12C0 18.6274 5.37258 24 12 24Z" fill="#DEDEDE"/>
</mask>
<g mask="url(#mask0_6113_1083)">
<path d="M6.60162 29.9986C10.2476 29.9986 13.2032 27.043 13.2032 23.397C13.2032 19.7511 10.2476 16.7954 6.60162 16.7954C2.95564 16.7954 0 19.7511 0 23.397C0 27.043 2.95564 29.9986 6.60162 29.9986Z" fill="#152E51"/>
<mask id="mask1_6113_1083" style="mask-type:alpha" maskUnits="userSpaceOnUse" x="5" y="0" width="3" height="19">
<path fill-rule="evenodd" clip-rule="evenodd" d="M5.87549 18.373V0.680664H7.34712V18.373H5.87549Z" fill="#152E51"/>
</mask>
<g mask="url(#mask1_6113_1083)">
<path d="M24.0004 12C24.0004 18.6274 18.6279 23.9999 12.0004 23.9999C5.37304 23.9999 0.000488281 18.6274 0.000488281 12C0.000488281 5.37255 5.37304 0 12.0004 0C18.6279 0 24.0004 5.37255 24.0004 12Z" fill="#152E51"/>
</g>
</g>
</svg>
