<svg width="24" height="24" viewBox="0 0 24 24" fill="none" xmlns="http://www.w3.org/2000/svg">
<g clip-path="url(#clip0_7567_919)">
<path d="M10.173 5.46161C9.91291 5.42445 9.90053 5.41207 10.0244 5.39969C10.2597 5.36254 10.8046 5.41207 11.1885 5.49876C12.0801 5.70929 12.885 6.25418 13.7395 7.20774L13.9624 7.4678L14.2844 7.41826C15.659 7.19535 17.0708 7.36873 18.2473 7.91362C18.5693 8.06223 19.077 8.35944 19.1389 8.43374C19.1637 8.45851 19.2008 8.6195 19.2256 8.78049C19.3123 9.36254 19.2751 9.79597 19.0894 10.1303C18.9903 10.3161 18.9903 10.3656 19.0522 10.5266C19.1018 10.6505 19.2504 10.7371 19.3866 10.7371C19.6838 10.7371 19.9934 10.2666 20.142 9.61021L20.2039 9.35015L20.3154 9.47399C20.947 10.1799 21.4423 11.1582 21.5166 11.8517L21.5414 12.0375L21.4299 11.8765C21.2442 11.5916 21.0708 11.4059 20.8355 11.2449C20.4145 10.9601 19.9686 10.8734 18.7922 10.8115C17.7272 10.7495 17.1203 10.6628 16.5259 10.4647C15.5104 10.1303 14.9903 9.6969 13.7891 8.09938C13.2566 7.3935 12.9222 7.00959 12.5878 6.68761C11.8572 5.98173 11.1265 5.61021 10.173 5.46161Z" fill="#FF007A"/>
<path d="M19.3986 7.03433C19.4234 6.56374 19.4853 6.25415 19.6215 5.96932C19.6711 5.85786 19.7206 5.75879 19.733 5.75879C19.7454 5.75879 19.7206 5.84548 19.6835 5.94455C19.5844 6.21699 19.572 6.60089 19.6339 7.03433C19.7206 7.59161 19.7578 7.66591 20.3522 8.27272C20.6246 8.55755 20.9466 8.91668 21.0704 9.06529L21.281 9.33774L21.0704 9.13959C20.8104 8.89192 20.216 8.42133 20.0797 8.35941C19.993 8.30987 19.9807 8.30987 19.9187 8.37179C19.8692 8.42133 19.8568 8.49563 19.8568 8.85476C19.8444 9.41204 19.7701 9.75879 19.5844 10.1179C19.4853 10.3037 19.4729 10.2665 19.5596 10.056C19.6215 9.89501 19.6339 9.82071 19.6339 9.2882C19.6339 8.2108 19.5101 7.95074 18.7547 7.5173C18.5689 7.40585 18.2469 7.24486 18.0612 7.15817C17.863 7.07148 17.7144 6.99718 17.7268 6.99718C17.7516 6.97241 18.4822 7.18294 18.767 7.30678C19.2005 7.48015 19.2748 7.49254 19.3243 7.48015C19.3615 7.443 19.3862 7.34393 19.3986 7.03433Z" fill="#FF007A"/>
<path d="M10.6811 8.87914C10.161 8.16088 9.82663 7.04633 9.90093 6.21661L9.9257 5.95654L10.0495 5.98131C10.2724 6.01846 10.6563 6.16707 10.8421 6.27852C11.3375 6.57574 11.5604 6.98441 11.7709 7.99989C11.8328 8.2971 11.9195 8.64385 11.9567 8.7553C12.0186 8.94106 12.2539 9.3745 12.452 9.64695C12.5882 9.84509 12.5016 9.94416 12.192 9.91939C11.7214 9.86986 11.0898 9.43642 10.6811 8.87914Z" fill="#FF007A"/>
<path d="M18.7671 14.2659C16.3151 13.2752 15.4482 12.4207 15.4482 10.9718C15.4482 10.7613 15.4606 10.5879 15.4606 10.5879C15.473 10.5879 15.5597 10.6622 15.6712 10.7489C16.1665 11.1452 16.7238 11.3185 18.2718 11.5415C19.1758 11.6777 19.6959 11.7767 20.1665 11.9377C21.665 12.4331 22.5938 13.4486 22.8167 14.8232C22.8786 15.2195 22.8414 15.9749 22.7424 16.3712C22.6557 16.6808 22.408 17.2504 22.3461 17.2628C22.3337 17.2628 22.3089 17.2009 22.3089 17.1018C22.2842 16.5817 22.0241 16.0863 21.5907 15.7024C21.0705 15.2566 20.4018 14.9223 18.7671 14.2659Z" fill="#FF007A"/>
<path d="M17.0338 14.6746C17.0091 14.4889 16.9471 14.2536 16.91 14.1545L16.8481 13.9688L16.9595 14.105C17.1205 14.2907 17.2444 14.5136 17.3558 14.8232C17.4425 15.0585 17.4425 15.1328 17.4425 15.5167C17.4425 15.8883 17.4301 15.9749 17.3558 16.1855C17.232 16.5198 17.0834 16.7551 16.8357 17.0152C16.3899 17.4734 15.8078 17.7211 14.9781 17.8325C14.8295 17.8449 14.4084 17.8821 14.0369 17.9068C13.1081 17.9564 12.4889 18.0554 11.9317 18.2536C11.8574 18.2783 11.7831 18.3031 11.7707 18.2907C11.7459 18.266 12.1298 18.0431 12.4394 17.8944C12.8728 17.6839 13.3187 17.5725 14.297 17.3991C14.78 17.3248 15.2753 17.2257 15.3992 17.1762C16.6252 16.7923 17.232 15.8387 17.0338 14.6746Z" fill="#FF007A"/>
<path d="M18.1606 16.6686C17.8386 15.9627 17.7643 15.294 17.9377 14.6624C17.9625 14.6005 17.9872 14.5386 18.012 14.5386C18.0368 14.5386 18.1111 14.5757 18.1854 14.6253C18.334 14.7243 18.6436 14.8977 19.4362 15.3311C20.4393 15.876 21.0089 16.2971 21.4052 16.7801C21.7519 17.2011 21.9625 17.6841 22.0615 18.2785C22.1235 18.6129 22.0863 19.4178 21.9996 19.7522C21.7272 20.8048 21.108 21.6469 20.204 22.1299C20.0677 22.2042 19.9563 22.2537 19.9439 22.2537C19.9315 22.2537 19.981 22.1299 20.0553 21.9813C20.3526 21.3497 20.3897 20.7429 20.1668 20.0618C20.0306 19.6407 19.7458 19.133 19.1761 18.2785C18.495 17.2878 18.334 17.0277 18.1606 16.6686Z" fill="#FF007A"/>
<path d="M8.93438 20.4587C9.85079 19.6909 10.9777 19.146 12.018 18.9726C12.4638 18.8983 13.2068 18.9231 13.6155 19.0346C14.2718 19.2079 14.8663 19.5795 15.1759 20.0377C15.4731 20.4835 15.6093 20.8674 15.7455 21.7219C15.7951 22.0562 15.857 22.403 15.8694 22.4773C15.9684 22.9231 16.1666 23.2699 16.4143 23.4556C16.7982 23.7404 17.4669 23.7528 18.1232 23.5052C18.2347 23.468 18.3338 23.4309 18.3338 23.4432C18.3585 23.468 18.0242 23.6909 17.8013 23.8024C17.4917 23.9634 17.244 24.0129 16.9096 24.0129C16.3152 24.0129 15.8074 23.7033 15.3988 23.0841C15.3121 22.9603 15.1387 22.6011 14.9901 22.2668C14.5567 21.2637 14.3338 20.9665 13.826 20.6321C13.3802 20.3473 12.8105 20.2853 12.3771 20.4959C11.8074 20.7683 11.6588 21.499 12.0551 21.9448C12.2161 22.1305 12.5133 22.2791 12.761 22.3163C13.2192 22.3782 13.6155 22.0191 13.6155 21.5609C13.6155 21.2637 13.504 21.0903 13.2068 20.9541C12.8105 20.7807 12.3771 20.9788 12.3895 21.3627C12.3895 21.5237 12.4638 21.6228 12.6248 21.6971C12.7239 21.7466 12.7239 21.7466 12.6495 21.7343C12.2904 21.66 12.2037 21.2141 12.4886 20.9293C12.8353 20.5826 13.566 20.7312 13.8136 21.2141C13.9127 21.4123 13.9251 21.8086 13.8384 22.0562C13.6279 22.6011 13.0334 22.886 12.4266 22.725C12.018 22.6135 11.8446 22.5021 11.3492 21.9943C10.4824 21.1027 10.148 20.9293 8.90961 20.7435L8.67432 20.7064L8.93438 20.4587Z" fill="#FF007A"/>
<path fill-rule="evenodd" clip-rule="evenodd" d="M2.42014 0.532508C5.30559 4.03715 9.75141 9.48607 9.97432 9.78328C10.1601 10.031 10.0858 10.2663 9.77618 10.4396C9.6028 10.5387 9.24367 10.6378 9.07029 10.6378C8.87215 10.6378 8.63686 10.5387 8.47587 10.3777C8.36441 10.2663 7.88144 9.56037 6.79166 7.86378C5.96193 6.56347 5.25605 5.48607 5.24367 5.47368C5.19413 5.44892 5.19413 5.44892 6.70497 8.14861C7.65853 9.8452 7.96813 10.452 7.96813 10.5263C7.96813 10.6873 7.91859 10.774 7.72045 10.9969C7.38608 11.3684 7.23748 11.7895 7.12602 12.6687C7.00218 13.6471 6.66782 14.3406 5.71426 15.517C5.15698 16.2105 5.07029 16.3344 4.93407 16.6192C4.7607 16.9659 4.71116 17.1641 4.68639 17.6099C4.66162 18.0805 4.71116 18.3777 4.84738 18.8235C4.97122 19.2198 5.10744 19.4799 5.44181 19.9876C5.72664 20.4334 5.90001 20.7678 5.90001 20.8916C5.90001 20.9907 5.92478 20.9907 6.3706 20.8916C7.43562 20.644 8.31488 20.2229 8.79785 19.7028C9.09506 19.3808 9.16936 19.2074 9.16936 18.7616C9.16936 18.4768 9.15698 18.4149 9.08268 18.2415C8.95884 17.969 8.72354 17.7461 8.2158 17.3994C7.54707 16.9412 7.26224 16.5697 7.18794 16.0743C7.12602 15.6533 7.20032 15.3684 7.57184 14.5882C7.95574 13.7833 8.05481 13.4489 8.11673 12.6316C8.15388 12.1115 8.2158 11.9009 8.36441 11.7399C8.5254 11.5666 8.66162 11.5046 9.04553 11.4551C9.6771 11.3684 10.0858 11.2074 10.4078 10.8978C10.6926 10.6378 10.8164 10.3777 10.8288 9.99381L10.8412 9.70898L10.6802 9.5356C10.0982 8.86687 2.03624 0 1.99909 0C1.9867 0 2.18484 0.235294 2.42014 0.532508ZM6.222 18.1424C6.35822 17.9071 6.28392 17.6099 6.06101 17.4613C5.85048 17.3251 5.5285 17.387 5.5285 17.5728C5.5285 17.6223 5.55327 17.6718 5.62757 17.6966C5.73902 17.7585 5.75141 17.8204 5.66472 17.9567C5.57803 18.0929 5.57803 18.2167 5.68949 18.3034C5.86286 18.4396 6.09816 18.3653 6.222 18.1424Z" fill="#FF007A"/>
<path fill-rule="evenodd" clip-rule="evenodd" d="M11.2379 11.6284C10.9407 11.7151 10.6559 12.0371 10.5692 12.3591C10.5197 12.5572 10.5444 12.9163 10.6311 13.0278C10.7673 13.2012 10.8912 13.2507 11.2379 13.2507C11.919 13.2507 12.5011 12.9535 12.563 12.5944C12.6249 12.2971 12.3649 11.8885 12.0057 11.7027C11.82 11.6036 11.4361 11.5665 11.2379 11.6284ZM12.0305 12.2476C12.1296 12.099 12.0924 11.938 11.9067 11.8266C11.5723 11.616 11.0645 11.7894 11.0645 12.1114C11.0645 12.2724 11.3246 12.4458 11.5723 12.4458C11.7333 12.4458 11.9562 12.3467 12.0305 12.2476Z" fill="#FF007A"/>
</g>
<defs>
<clipPath id="clip0_7567_919">
<rect width="20.8421" height="24" fill="white" transform="translate(1.99951)"/>
</clipPath>
</defs>
</svg>
